<svg width="865" height="873" viewBox="0 0 865 873" fill="none" xmlns="http://www.w3.org/2000/svg">
<path fill-rule="evenodd" clip-rule="evenodd" d="M414.307 37.0147C505.948 40.9012 604.919 3.01981 682.31 52.2513C760.983 102.298 815.127 198.028 813.982 291.263C812.911 378.451 694.487 421.025 676.732 506.392C654.835 611.667 775.238 739.324 704.03 819.895C638.365 894.195 512.939 813.531 414.307 803.323C328.567 794.45 230.977 819.719 165.106 764.122C100.035 709.2 97.0045 611.963 87.3493 527.361C79.3919 457.635 108.978 393.76 114.858 323.828C123.313 223.252 56.3735 98.6109 129.264 28.7964C199.632 -38.6024 316.956 32.886 414.307 37.0147Z" fill="#F1DFD5"/>
<path fill-rule="evenodd" clip-rule="evenodd" d="M542.532 550.951C609.236 547.215 679.789 518.379 735.315 542.578C794.672 568.446 805.204 621.061 809.447 667.274C814.023 717.116 811.47 770.705 759.659 807.717C706.025 846.029 622.422 858.968 542.532 857.944C464.319 856.943 377.246 844.357 333.837 802.262C293.64 763.284 336.865 713.763 345.905 667.274C353.071 630.424 338.098 587.516 380.47 562.449C422.158 537.787 486.247 554.103 542.532 550.951Z" fill="#1D1F45"/>
<path fill-rule="evenodd" clip-rule="evenodd" d="M657.881 54.9092C728.311 59.0664 806.869 65.7492 846.872 123.865C885.03 179.301 853.618 250.242 837.268 315.525C821.597 378.093 814.415 451.071 757.378 481.189C698.849 512.095 629.804 485.429 570.268 456.511C511.063 427.754 458.969 386.933 436.19 325.18C408.831 251.01 388.54 160.895 438.676 99.7713C488.44 39.1019 579.549 50.2856 657.881 54.9092Z" fill="#FF8357"/>
<path d="M576.093 105.88V151H563.549V132.888H548.253V151H535.709V105.88H548.253V122.84H563.549V105.88H576.093ZM589.608 111.768C587.389 111.768 585.597 111.171 584.232 109.976C582.909 108.739 582.248 107.203 582.248 105.368C582.248 103.491 582.909 101.933 584.232 100.696C585.597 99.4587 587.389 98.84 589.608 98.84C591.784 98.84 593.533 99.4587 594.856 100.696C596.221 101.933 596.904 103.491 596.904 105.368C596.904 107.203 596.221 108.739 594.856 109.976C593.533 111.171 591.784 111.768 589.608 111.768ZM595.816 115.096V151H583.272V115.096H595.816ZM616.463 140.248L609.615 158.936H601.679L605.007 140.248H616.463ZM647.878 105.88V151H635.334V105.88H647.878ZM658.094 105.88H670.766L663.406 123.928H655.022L658.094 105.88ZM724.059 114.776C728.581 114.776 732.123 116.141 734.683 118.872C737.285 121.603 738.587 125.336 738.587 130.072V151H726.043V131.736C726.043 129.816 725.509 128.323 724.443 127.256C723.376 126.189 721.925 125.656 720.091 125.656C718.256 125.656 716.805 126.189 715.739 127.256C714.672 128.323 714.139 129.816 714.139 131.736V151H701.595V131.736C701.595 129.816 701.061 128.323 699.995 127.256C698.971 126.189 697.541 125.656 695.707 125.656C693.829 125.656 692.357 126.189 691.291 127.256C690.224 128.323 689.691 129.816 689.691 131.736V151H677.147V115.096H689.691V119.832C690.8 118.296 692.229 117.08 693.979 116.184C695.771 115.245 697.819 114.776 700.123 114.776C702.768 114.776 705.115 115.352 707.163 116.504C709.253 117.656 710.896 119.277 712.091 121.368C713.371 119.405 715.056 117.827 717.147 116.632C719.237 115.395 721.541 114.776 724.059 114.776ZM565.595 247H553.051L536.347 221.784V247H523.803V201.88H536.347L553.051 227.416V201.88H565.595V247ZM579.076 207.768C576.858 207.768 575.066 207.171 573.7 205.976C572.378 204.739 571.716 203.203 571.716 201.368C571.716 199.491 572.378 197.933 573.7 196.696C575.066 195.459 576.858 194.84 579.076 194.84C581.252 194.84 583.002 195.459 584.324 196.696C585.69 197.933 586.372 199.491 586.372 201.368C586.372 203.203 585.69 204.739 584.324 205.976C583.002 207.171 581.252 207.768 579.076 207.768ZM585.284 211.096V247H572.74V211.096H585.284ZM614.892 247L604.972 232.28V247H592.428V199.64H604.972V225.176L614.892 211.096H629.932L615.788 229.144L630.188 247H614.892ZM650.569 247.448C646.985 247.448 643.764 246.701 640.905 245.208C638.089 243.715 635.871 241.581 634.249 238.808C632.628 236.035 631.817 232.771 631.817 229.016C631.817 225.304 632.628 222.061 634.249 219.288C635.913 216.515 638.153 214.381 640.969 212.888C643.828 211.395 647.049 210.648 650.633 210.648C654.217 210.648 657.417 211.395 660.233 212.888C663.092 214.381 665.332 216.515 666.953 219.288C668.617 222.061 669.449 225.304 669.449 229.016C669.449 232.728 668.617 235.992 666.953 238.808C665.332 241.581 663.092 243.715 660.233 245.208C657.375 246.701 654.153 247.448 650.569 247.448ZM650.569 236.568C652.319 236.568 653.769 235.928 654.921 234.648C656.116 233.325 656.713 231.448 656.713 229.016C656.713 226.584 656.116 224.728 654.921 223.448C653.769 222.168 652.34 221.528 650.633 221.528C648.927 221.528 647.497 222.168 646.345 223.448C645.193 224.728 644.617 226.584 644.617 229.016C644.617 231.491 645.172 233.368 646.281 234.648C647.391 235.928 648.82 236.568 650.569 236.568ZM687.097 199.64V247H674.553V199.64H687.097ZM692.192 229.016C692.192 225.304 692.854 222.061 694.176 219.288C695.542 216.515 697.376 214.381 699.68 212.888C702.027 211.395 704.63 210.648 707.488 210.648C709.963 210.648 712.096 211.139 713.888 212.12C715.68 213.101 717.067 214.424 718.048 216.088V211.096H730.592V247H718.048V242.008C717.067 243.672 715.659 244.995 713.824 245.976C712.032 246.957 709.92 247.448 707.488 247.448C704.63 247.448 702.027 246.701 699.68 245.208C697.376 243.715 695.542 241.581 694.176 238.808C692.854 235.992 692.192 232.728 692.192 229.016ZM718.048 229.016C718.048 226.712 717.408 224.899 716.128 223.576C714.891 222.253 713.355 221.592 711.52 221.592C709.643 221.592 708.086 222.253 706.848 223.576C705.611 224.856 704.992 226.669 704.992 229.016C704.992 231.32 705.611 233.155 706.848 234.52C708.086 235.843 709.643 236.504 711.52 236.504C713.355 236.504 714.891 235.843 716.128 234.52C717.408 233.197 718.048 231.363 718.048 229.016ZM744.012 207.768C741.794 207.768 740.002 207.171 738.636 205.976C737.314 204.739 736.652 203.203 736.652 201.368C736.652 199.491 737.314 197.933 738.636 196.696C740.002 195.459 741.794 194.84 744.012 194.84C746.188 194.84 747.938 195.459 749.26 196.696C750.626 197.933 751.308 199.491 751.308 201.368C751.308 203.203 750.626 204.739 749.26 205.976C747.938 207.171 746.188 207.768 744.012 207.768ZM750.284 250.52C750.284 259.608 745.719 264.152 736.588 264.152H732.044V253.464H734.732C735.799 253.464 736.567 253.251 737.036 252.824C737.506 252.397 737.74 251.693 737.74 250.712V211.096H750.284V250.52Z" fill="white"/>
<path d="M666.437 345H659.717L644.501 322.008V345H637.781V311.448H644.501L659.717 334.488V311.448H666.437V345ZM676.486 315.24C675.302 315.24 674.31 314.872 673.51 314.136C672.742 313.368 672.358 312.424 672.358 311.304C672.358 310.184 672.742 309.256 673.51 308.52C674.31 307.752 675.302 307.368 676.486 307.368C677.67 307.368 678.646 307.752 679.414 308.52C680.214 309.256 680.614 310.184 680.614 311.304C680.614 312.424 680.214 313.368 679.414 314.136C678.646 314.872 677.67 315.24 676.486 315.24ZM679.798 318.408V345H673.078V318.408H679.798ZM702.181 345L693.157 333.672V345H686.437V309.48H693.157V329.688L702.085 318.408H710.821L699.109 331.752L710.917 345H702.181ZM712.74 331.704C712.74 328.952 713.3 326.552 714.42 324.504C715.54 322.424 717.092 320.824 719.076 319.704C721.06 318.552 723.332 317.976 725.892 317.976C729.188 317.976 731.908 318.808 734.052 320.472C736.228 322.104 737.684 324.408 738.42 327.384H731.172C730.788 326.232 730.132 325.336 729.204 324.696C728.308 324.024 727.188 323.688 725.844 323.688C723.924 323.688 722.404 324.392 721.284 325.8C720.164 327.176 719.604 329.144 719.604 331.704C719.604 334.232 720.164 336.2 721.284 337.608C722.404 338.984 723.924 339.672 725.844 339.672C728.564 339.672 730.34 338.456 731.172 336.024H738.42C737.684 338.904 736.228 341.192 734.052 342.888C731.876 344.584 729.156 345.432 725.892 345.432C723.332 345.432 721.06 344.872 719.076 343.752C717.092 342.6 715.54 341 714.42 338.952C713.3 336.872 712.74 334.456 712.74 331.704ZM746.751 315.24C745.567 315.24 744.575 314.872 743.775 314.136C743.007 313.368 742.623 312.424 742.623 311.304C742.623 310.184 743.007 309.256 743.775 308.52C744.575 307.752 745.567 307.368 746.751 307.368C747.935 307.368 748.911 307.752 749.679 308.52C750.479 309.256 750.879 310.184 750.879 311.304C750.879 312.424 750.479 313.368 749.679 314.136C748.911 314.872 747.935 315.24 746.751 315.24ZM750.063 318.408V345H743.343V318.408H750.063ZM768.511 345.432C765.951 345.432 763.647 344.872 761.599 343.752C759.551 342.6 757.935 340.984 756.751 338.904C755.599 336.824 755.023 334.424 755.023 331.704C755.023 328.984 755.615 326.584 756.799 324.504C758.015 322.424 759.663 320.824 761.743 319.704C763.823 318.552 766.143 317.976 768.703 317.976C771.263 317.976 773.583 318.552 775.663 319.704C777.743 320.824 779.375 322.424 780.559 324.504C781.775 326.584 782.383 328.984 782.383 331.704C782.383 334.424 781.759 336.824 780.511 338.904C779.295 340.984 777.631 342.6 775.519 343.752C773.439 344.872 771.103 345.432 768.511 345.432ZM768.511 339.576C769.727 339.576 770.863 339.288 771.919 338.712C773.007 338.104 773.871 337.208 774.511 336.024C775.151 334.84 775.471 333.4 775.471 331.704C775.471 329.176 774.799 327.24 773.455 325.896C772.143 324.52 770.527 323.832 768.607 323.832C766.687 323.832 765.071 324.52 763.759 325.896C762.479 327.24 761.839 329.176 761.839 331.704C761.839 334.232 762.463 336.184 763.711 337.56C764.991 338.904 766.591 339.576 768.511 339.576Z" fill="black"/>
<path d="M669.556 364.272C671.38 364.272 672.956 364.616 674.284 365.304C675.628 365.976 676.652 366.944 677.356 368.208C678.076 369.472 678.436 370.96 678.436 372.672C678.436 374.384 678.076 375.872 677.356 377.136C676.652 378.384 675.628 379.344 674.284 380.016C672.956 380.672 671.38 381 669.556 381H664.348V364.272H669.556ZM669.556 379.2C671.716 379.2 673.364 378.632 674.5 377.496C675.636 376.344 676.204 374.736 676.204 372.672C676.204 370.592 675.628 368.968 674.476 367.8C673.34 366.632 671.7 366.048 669.556 366.048H666.532V379.2H669.556ZM693.317 373.92C693.317 374.336 693.293 374.776 693.245 375.24H682.733C682.813 376.536 683.253 377.552 684.053 378.288C684.869 379.008 685.853 379.368 687.005 379.368C687.949 379.368 688.733 379.152 689.357 378.72C689.997 378.272 690.445 377.68 690.701 376.944H693.053C692.701 378.208 691.997 379.24 690.941 380.04C689.885 380.824 688.573 381.216 687.005 381.216C685.757 381.216 684.637 380.936 683.645 380.376C682.669 379.816 681.901 379.024 681.341 378C680.781 376.96 680.501 375.76 680.501 374.4C680.501 373.04 680.773 371.848 681.317 370.824C681.861 369.8 682.621 369.016 683.597 368.472C684.589 367.912 685.725 367.632 687.005 367.632C688.253 367.632 689.357 367.904 690.317 368.448C691.277 368.992 692.013 369.744 692.525 370.704C693.053 371.648 693.317 372.72 693.317 373.92ZM691.061 373.464C691.061 372.632 690.877 371.92 690.509 371.328C690.141 370.72 689.637 370.264 688.997 369.96C688.373 369.64 687.677 369.48 686.909 369.48C685.805 369.48 684.861 369.832 684.077 370.536C683.309 371.24 682.869 372.216 682.757 373.464H691.061ZM701.096 378.984L705.176 367.848H707.504L702.344 381H699.8L694.64 367.848H696.992L701.096 378.984ZM721.653 373.92C721.653 374.336 721.629 374.776 721.581 375.24H711.069C711.149 376.536 711.589 377.552 712.389 378.288C713.205 379.008 714.189 379.368 715.341 379.368C716.285 379.368 717.069 379.152 717.693 378.72C718.333 378.272 718.781 377.68 719.037 376.944H721.389C721.037 378.208 720.333 379.24 719.277 380.04C718.221 380.824 716.909 381.216 715.341 381.216C714.093 381.216 712.973 380.936 711.981 380.376C711.005 379.816 710.237 379.024 709.677 378C709.117 376.96 708.837 375.76 708.837 374.4C708.837 373.04 709.109 371.848 709.653 370.824C710.197 369.8 710.957 369.016 711.933 368.472C712.925 367.912 714.061 367.632 715.341 367.632C716.589 367.632 717.693 367.904 718.653 368.448C719.613 368.992 720.349 369.744 720.861 370.704C721.389 371.648 721.653 372.72 721.653 373.92ZM719.397 373.464C719.397 372.632 719.213 371.92 718.845 371.328C718.477 370.72 717.973 370.264 717.333 369.96C716.709 369.64 716.013 369.48 715.245 369.48C714.141 369.48 713.197 369.832 712.413 370.536C711.645 371.24 711.205 372.216 711.093 373.464H719.397ZM726.72 363.24V381H724.536V363.24H726.72ZM736.178 381.216C734.946 381.216 733.826 380.936 732.818 380.376C731.826 379.816 731.042 379.024 730.466 378C729.906 376.96 729.626 375.76 729.626 374.4C729.626 373.056 729.914 371.872 730.49 370.848C731.082 369.808 731.882 369.016 732.89 368.472C733.898 367.912 735.026 367.632 736.274 367.632C737.522 367.632 738.65 367.912 739.658 368.472C740.666 369.016 741.458 369.8 742.034 370.824C742.626 371.848 742.922 373.04 742.922 374.4C742.922 375.76 742.618 376.96 742.01 378C741.418 379.024 740.61 379.816 739.586 380.376C738.562 380.936 737.426 381.216 736.178 381.216ZM736.178 379.296C736.962 379.296 737.698 379.112 738.386 378.744C739.074 378.376 739.626 377.824 740.042 377.088C740.474 376.352 740.69 375.456 740.69 374.4C740.69 373.344 740.482 372.448 740.066 371.712C739.65 370.976 739.106 370.432 738.434 370.08C737.762 369.712 737.034 369.528 736.25 369.528C735.45 369.528 734.714 369.712 734.042 370.08C733.386 370.432 732.858 370.976 732.458 371.712C732.058 372.448 731.858 373.344 731.858 374.4C731.858 375.472 732.05 376.376 732.434 377.112C732.834 377.848 733.362 378.4 734.018 378.768C734.674 379.12 735.394 379.296 736.178 379.296ZM747.977 370.272C748.409 369.52 749.049 368.896 749.897 368.4C750.761 367.888 751.761 367.632 752.897 367.632C754.065 367.632 755.121 367.912 756.065 368.472C757.025 369.032 757.777 369.824 758.321 370.848C758.865 371.856 759.137 373.032 759.137 374.376C759.137 375.704 758.865 376.888 758.321 377.928C757.777 378.968 757.025 379.776 756.065 380.352C755.121 380.928 754.065 381.216 752.897 381.216C751.777 381.216 750.785 380.968 749.921 380.472C749.073 379.96 748.425 379.328 747.977 378.576V387.24H745.793V367.848H747.977V370.272ZM756.905 374.376C756.905 373.384 756.705 372.52 756.305 371.784C755.905 371.048 755.361 370.488 754.673 370.104C754.001 369.72 753.257 369.528 752.441 369.528C751.641 369.528 750.897 369.728 750.209 370.128C749.537 370.512 748.993 371.08 748.577 371.832C748.177 372.568 747.977 373.424 747.977 374.4C747.977 375.392 748.177 376.264 748.577 377.016C748.993 377.752 749.537 378.32 750.209 378.72C750.897 379.104 751.641 379.296 752.441 379.296C753.257 379.296 754.001 379.104 754.673 378.72C755.361 378.32 755.905 377.752 756.305 377.016C756.705 376.264 756.905 375.384 756.905 374.376ZM774.012 373.92C774.012 374.336 773.988 374.776 773.94 375.24H763.428C763.508 376.536 763.948 377.552 764.748 378.288C765.564 379.008 766.548 379.368 767.7 379.368C768.644 379.368 769.428 379.152 770.052 378.72C770.692 378.272 771.14 377.68 771.396 376.944H773.748C773.396 378.208 772.692 379.24 771.636 380.04C770.58 380.824 769.268 381.216 767.7 381.216C766.452 381.216 765.332 380.936 764.34 380.376C763.364 379.816 762.596 379.024 762.036 378C761.476 376.96 761.196 375.76 761.196 374.4C761.196 373.04 761.468 371.848 762.012 370.824C762.556 369.8 763.316 369.016 764.292 368.472C765.284 367.912 766.42 367.632 767.7 367.632C768.948 367.632 770.052 367.904 771.012 368.448C771.972 368.992 772.708 369.744 773.22 370.704C773.748 371.648 774.012 372.72 774.012 373.92ZM771.756 373.464C771.756 372.632 771.572 371.92 771.204 371.328C770.836 370.72 770.332 370.264 769.692 369.96C769.068 369.64 768.372 369.48 767.604 369.48C766.5 369.48 765.556 369.832 764.772 370.536C764.004 371.24 763.564 372.216 763.452 373.464H771.756ZM779.079 369.984C779.463 369.232 780.007 368.648 780.711 368.232C781.431 367.816 782.303 367.608 783.327 367.608V369.864H782.751C780.303 369.864 779.079 371.192 779.079 373.848V381H776.895V367.848H779.079V369.984Z" fill="black"/>
<path d="M685.036 423.88C686.343 423.88 687.41 424.287 688.236 425.1C689.063 425.9 689.476 427.067 689.476 428.6V435H688.096V428.76C688.096 427.573 687.796 426.667 687.196 426.04C686.61 425.413 685.803 425.1 684.776 425.1C683.723 425.1 682.883 425.433 682.256 426.1C681.63 426.767 681.316 427.747 681.316 429.04V435H679.916V424.08H681.316V425.94C681.663 425.273 682.163 424.767 682.816 424.42C683.47 424.06 684.21 423.88 685.036 423.88ZM693.273 422.02C692.993 422.02 692.753 421.92 692.553 421.72C692.353 421.52 692.253 421.273 692.253 420.98C692.253 420.687 692.353 420.447 692.553 420.26C692.753 420.06 692.993 419.96 693.273 419.96C693.553 419.96 693.793 420.06 693.993 420.26C694.193 420.447 694.293 420.687 694.293 420.98C694.293 421.273 694.193 421.52 693.993 421.72C693.793 421.92 693.553 422.02 693.273 422.02ZM693.973 424.08V435H692.573V424.08H693.973ZM703.043 435L698.543 430.1V435H697.143V420.2H698.543V428.96L702.943 424.08H704.903L699.723 429.52L704.943 435H703.043ZM706.112 429.54C706.112 428.407 706.339 427.42 706.792 426.58C707.246 425.727 707.872 425.073 708.672 424.62C709.472 424.153 710.386 423.92 711.412 423.92C712.759 423.92 713.866 424.253 714.732 424.92C715.612 425.587 716.179 426.493 716.432 427.64H714.932C714.746 426.853 714.339 426.24 713.712 425.8C713.099 425.347 712.332 425.12 711.412 425.12C710.679 425.12 710.019 425.287 709.432 425.62C708.846 425.953 708.379 426.453 708.032 427.12C707.699 427.773 707.532 428.58 707.532 429.54C707.532 430.5 707.699 431.313 708.032 431.98C708.379 432.647 708.846 433.147 709.432 433.48C710.019 433.813 710.679 433.98 711.412 433.98C712.332 433.98 713.099 433.76 713.712 433.32C714.339 432.867 714.746 432.24 714.932 431.44H716.432C716.179 432.56 715.612 433.46 714.732 434.14C713.852 434.82 712.746 435.16 711.412 435.16C710.386 435.16 709.472 434.933 708.672 434.48C707.872 434.013 707.246 433.36 706.792 432.52C706.339 431.667 706.112 430.673 706.112 429.54ZM719.718 422.02C719.438 422.02 719.198 421.92 718.998 421.72C718.798 421.52 718.698 421.273 718.698 420.98C718.698 420.687 718.798 420.447 718.998 420.26C719.198 420.06 719.438 419.96 719.718 419.96C719.998 419.96 720.238 420.06 720.438 420.26C720.638 420.447 720.738 420.687 720.738 420.98C720.738 421.273 720.638 421.52 720.438 421.72C720.238 421.92 719.998 422.02 719.718 422.02ZM720.418 424.08V435H719.018V424.08H720.418ZM728.368 435.16C727.342 435.16 726.415 434.933 725.588 434.48C724.775 434.013 724.128 433.36 723.648 432.52C723.182 431.667 722.948 430.673 722.948 429.54C722.948 428.407 723.188 427.42 723.668 426.58C724.148 425.727 724.802 425.073 725.628 424.62C726.455 424.153 727.382 423.92 728.408 423.92C729.435 423.92 730.362 424.153 731.188 424.62C732.028 425.073 732.682 425.727 733.148 426.58C733.628 427.42 733.868 428.407 733.868 429.54C733.868 430.66 733.628 431.647 733.148 432.5C732.668 433.353 732.008 434.013 731.168 434.48C730.328 434.933 729.395 435.16 728.368 435.16ZM728.368 433.94C729.088 433.94 729.755 433.78 730.368 433.46C730.982 433.127 731.475 432.633 731.848 431.98C732.235 431.313 732.428 430.5 732.428 429.54C732.428 428.58 732.242 427.773 731.868 427.12C731.495 426.453 731.002 425.96 730.388 425.64C729.775 425.307 729.108 425.14 728.388 425.14C727.668 425.14 727.002 425.307 726.388 425.64C725.775 425.96 725.282 426.453 724.908 427.12C724.548 427.773 724.368 428.58 724.368 429.54C724.368 430.5 724.548 431.313 724.908 431.98C725.282 432.633 725.768 433.127 726.368 433.46C726.982 433.78 727.648 433.94 728.368 433.94ZM736.66 435.1C736.367 435.1 736.12 435 735.92 434.8C735.734 434.6 735.64 434.353 735.64 434.06C735.64 433.767 735.734 433.527 735.92 433.34C736.12 433.14 736.367 433.04 736.66 433.04C736.94 433.04 737.174 433.14 737.36 433.34C737.56 433.527 737.66 433.767 737.66 434.06C737.66 434.353 737.56 434.6 737.36 434.8C737.174 435 736.94 435.1 736.66 435.1ZM739.413 429.54C739.413 428.407 739.64 427.42 740.093 426.58C740.546 425.727 741.173 425.073 741.973 424.62C742.773 424.153 743.686 423.92 744.713 423.92C746.06 423.92 747.166 424.253 748.033 424.92C748.913 425.587 749.48 426.493 749.733 427.64H748.233C748.046 426.853 747.64 426.24 747.013 425.8C746.4 425.347 745.633 425.12 744.713 425.12C743.98 425.12 743.32 425.287 742.733 425.62C742.146 425.953 741.68 426.453 741.333 427.12C741 427.773 740.833 428.58 740.833 429.54C740.833 430.5 741 431.313 741.333 431.98C741.68 432.647 742.146 433.147 742.733 433.48C743.32 433.813 743.98 433.98 744.713 433.98C745.633 433.98 746.4 433.76 747.013 433.32C747.64 432.867 748.046 432.24 748.233 431.44H749.733C749.48 432.56 748.913 433.46 748.033 434.14C747.153 434.82 746.046 435.16 744.713 435.16C743.686 435.16 742.773 434.933 741.973 434.48C741.173 434.013 740.546 433.36 740.093 432.52C739.64 431.667 739.413 430.673 739.413 429.54ZM757.099 435.16C756.072 435.16 755.145 434.933 754.319 434.48C753.505 434.013 752.859 433.36 752.379 432.52C751.912 431.667 751.679 430.673 751.679 429.54C751.679 428.407 751.919 427.42 752.399 426.58C752.879 425.727 753.532 425.073 754.359 424.62C755.185 424.153 756.112 423.92 757.139 423.92C758.165 423.92 759.092 424.153 759.919 424.62C760.759 425.073 761.412 425.727 761.879 426.58C762.359 427.42 762.599 428.407 762.599 429.54C762.599 430.66 762.359 431.647 761.879 432.5C761.399 433.353 760.739 434.013 759.899 434.48C759.059 434.933 758.125 435.16 757.099 435.16ZM757.099 433.94C757.819 433.94 758.485 433.78 759.099 433.46C759.712 433.127 760.205 432.633 760.579 431.98C760.965 431.313 761.159 430.5 761.159 429.54C761.159 428.58 760.972 427.773 760.599 427.12C760.225 426.453 759.732 425.96 759.119 425.64C758.505 425.307 757.839 425.14 757.119 425.14C756.399 425.14 755.732 425.307 755.119 425.64C754.505 425.96 754.012 426.453 753.639 427.12C753.279 427.773 753.099 428.58 753.099 429.54C753.099 430.5 753.279 431.313 753.639 431.98C754.012 432.633 754.499 433.127 755.099 433.46C755.712 433.78 756.379 433.94 757.099 433.94ZM778.151 423.88C779.431 423.88 780.471 424.287 781.271 425.1C782.084 425.9 782.491 427.067 782.491 428.6V435H781.111V428.76C781.111 427.573 780.824 426.667 780.251 426.04C779.677 425.413 778.897 425.1 777.911 425.1C776.884 425.1 776.064 425.44 775.451 426.12C774.837 426.8 774.531 427.787 774.531 429.08V435H773.151V428.76C773.151 427.573 772.864 426.667 772.291 426.04C771.717 425.413 770.931 425.1 769.931 425.1C768.904 425.1 768.084 425.44 767.471 426.12C766.857 426.8 766.551 427.787 766.551 429.08V435H765.151V424.08H766.551V425.96C766.897 425.28 767.391 424.767 768.031 424.42C768.671 424.06 769.384 423.88 770.171 423.88C771.117 423.88 771.944 424.107 772.651 424.56C773.371 425.013 773.891 425.68 774.211 426.56C774.504 425.693 775.004 425.033 775.711 424.58C776.431 424.113 777.244 423.88 778.151 423.88Z" fill="black"/>
<line x1="638.498" y1="290" x2="782.502" y2="290" stroke="black" stroke-width="3" stroke-linecap="round"/>
<line x1="735.5" y1="405.5" x2="783.5" y2="405.5" stroke="black" stroke-linecap="round"/>
<path fill-rule="evenodd" clip-rule="evenodd" d="M178.138 83.628C215.171 84.9431 252.29 91.7578 279.909 116.462C309.05 142.528 336.526 179.941 328.625 218.232C321.129 254.563 272.331 260.003 245.094 285.188C220.043 308.352 211.277 349.257 178.138 357.381C139.733 366.796 94.2362 357.988 67.6946 328.676C41.7528 300.027 51.9318 256.881 52.1392 218.232C52.3448 179.929 42.6975 136.932 68.874 108.968C95.4354 80.5924 139.296 82.2486 178.138 83.628Z" fill="#FFC068"/>
<path d="M408.61 598.2C409.83 598.46 410.81 599.07 411.55 600.03C412.29 600.97 412.66 602.05 412.66 603.27C412.66 605.03 412.04 606.43 410.8 607.47C409.58 608.49 407.87 609 405.67 609H395.86V587.94H405.34C407.48 587.94 409.15 588.43 410.35 589.41C411.57 590.39 412.18 591.72 412.18 593.4C412.18 594.64 411.85 595.67 411.19 596.49C410.55 597.31 409.69 597.88 408.61 598.2ZM400.99 596.46H404.35C405.19 596.46 405.83 596.28 406.27 595.92C406.73 595.54 406.96 594.99 406.96 594.27C406.96 593.55 406.73 593 406.27 592.62C405.83 592.24 405.19 592.05 404.35 592.05H400.99V596.46ZM404.77 604.86C405.63 604.86 406.29 604.67 406.75 604.29C407.23 603.89 407.47 603.32 407.47 602.58C407.47 601.84 407.22 601.26 406.72 600.84C406.24 600.42 405.57 600.21 404.71 600.21H400.99V604.86H404.77ZM414.615 600.6C414.615 598.88 414.935 597.37 415.575 596.07C416.235 594.77 417.125 593.77 418.245 593.07C419.365 592.37 420.615 592.02 421.995 592.02C423.175 592.02 424.205 592.26 425.085 592.74C425.985 593.22 426.675 593.85 427.155 594.63V592.26H432.285V609H427.155V606.63C426.655 607.41 425.955 608.04 425.055 608.52C424.175 609 423.145 609.24 421.965 609.24C420.605 609.24 419.365 608.89 418.245 608.19C417.125 607.47 416.235 606.46 415.575 605.16C414.935 603.84 414.615 602.32 414.615 600.6ZM427.155 600.63C427.155 599.35 426.795 598.34 426.075 597.6C425.375 596.86 424.515 596.49 423.495 596.49C422.475 596.49 421.605 596.86 420.885 597.6C420.185 598.32 419.835 599.32 419.835 600.6C419.835 601.88 420.185 602.9 420.885 603.66C421.605 604.4 422.475 604.77 423.495 604.77C424.515 604.77 425.375 604.4 426.075 603.66C426.795 602.92 427.155 601.91 427.155 600.63ZM434.977 600.63C434.977 598.89 435.327 597.37 436.027 596.07C436.747 594.77 437.737 593.77 438.997 593.07C440.277 592.37 441.737 592.02 443.377 592.02C445.477 592.02 447.227 592.57 448.627 593.67C450.047 594.77 450.977 596.32 451.417 598.32H445.957C445.497 597.04 444.607 596.4 443.287 596.4C442.347 596.4 441.597 596.77 441.037 597.51C440.477 598.23 440.197 599.27 440.197 600.63C440.197 601.99 440.477 603.04 441.037 603.78C441.597 604.5 442.347 604.86 443.287 604.86C444.607 604.86 445.497 604.22 445.957 602.94H451.417C450.977 604.9 450.047 606.44 448.627 607.56C447.207 608.68 445.457 609.24 443.377 609.24C441.737 609.24 440.277 608.89 438.997 608.19C437.737 607.49 436.747 606.49 436.027 605.19C435.327 603.89 434.977 602.37 434.977 600.63ZM464.391 609L459.291 601.98V609H454.161V586.8H459.291V599.07L464.361 592.26H470.691L463.731 600.66L470.751 609H464.391ZM488.486 600.36C488.486 600.84 488.456 601.34 488.396 601.86H476.786C476.866 602.9 477.196 603.7 477.776 604.26C478.376 604.8 479.106 605.07 479.966 605.07C481.246 605.07 482.136 604.53 482.636 603.45H488.096C487.816 604.55 487.306 605.54 486.566 606.42C485.846 607.3 484.936 607.99 483.836 608.49C482.736 608.99 481.506 609.24 480.146 609.24C478.506 609.24 477.046 608.89 475.766 608.19C474.486 607.49 473.486 606.49 472.766 605.19C472.046 603.89 471.686 602.37 471.686 600.63C471.686 598.89 472.036 597.37 472.736 596.07C473.456 594.77 474.456 593.77 475.736 593.07C477.016 592.37 478.486 592.02 480.146 592.02C481.766 592.02 483.206 592.36 484.466 593.04C485.726 593.72 486.706 594.69 487.406 595.95C488.126 597.21 488.486 598.68 488.486 600.36ZM483.236 599.01C483.236 598.13 482.936 597.43 482.336 596.91C481.736 596.39 480.986 596.13 480.086 596.13C479.226 596.13 478.496 596.38 477.896 596.88C477.316 597.38 476.956 598.09 476.816 599.01H483.236ZM501.392 592.08C503.352 592.08 504.912 592.72 506.072 594C507.252 595.26 507.842 597 507.842 599.22V609H502.742V599.91C502.742 598.79 502.452 597.92 501.872 597.3C501.292 596.68 500.512 596.37 499.532 596.37C498.552 596.37 497.772 596.68 497.192 597.3C496.612 597.92 496.322 598.79 496.322 599.91V609H491.192V592.26H496.322V594.48C496.842 593.74 497.542 593.16 498.422 592.74C499.302 592.3 500.292 592.08 501.392 592.08ZM510.387 600.6C510.387 598.88 510.707 597.37 511.347 596.07C512.007 594.77 512.897 593.77 514.017 593.07C515.137 592.37 516.387 592.02 517.767 592.02C518.867 592.02 519.867 592.25 520.767 592.71C521.687 593.17 522.407 593.79 522.927 594.57V586.8H528.057V609H522.927V606.6C522.447 607.4 521.757 608.04 520.857 608.52C519.977 609 518.947 609.24 517.767 609.24C516.387 609.24 515.137 608.89 514.017 608.19C512.897 607.47 512.007 606.46 511.347 605.16C510.707 603.84 510.387 602.32 510.387 600.6ZM522.927 600.63C522.927 599.35 522.567 598.34 521.847 597.6C521.147 596.86 520.287 596.49 519.267 596.49C518.247 596.49 517.377 596.86 516.657 597.6C515.957 598.32 515.607 599.32 515.607 600.6C515.607 601.88 515.957 602.9 516.657 603.66C517.377 604.4 518.247 604.77 519.267 604.77C520.287 604.77 521.147 604.4 521.847 603.66C522.567 602.92 522.927 601.91 522.927 600.63Z" fill="white"/>
<path fill-rule="evenodd" clip-rule="evenodd" d="M334.037 472.33C310.819 468.522 293.849 448.564 276.382 429.733C257.275 409.135 228.711 391.081 230.045 360.22C231.372 329.54 261.154 315.098 282.095 297.596C297.961 284.336 314.75 274.317 334.037 273.309C354.364 272.246 377.805 272.932 390.687 291.919C403.128 310.253 390.195 336.776 393.007 360.22C396.859 392.33 424.257 424.221 409.845 451.619C395.419 479.044 360.726 476.706 334.037 472.33Z" fill="white"/>
<rect x="302.76" y="358.32" width="63.36" height="63.36" rx="31.68" fill="white"/>
<path d="M332.048 355.094C313.245 355.071 297.98 370.231 297.961 388.956C297.951 407.687 313.196 422.89 332 422.899C350.783 422.899 366.014 407.765 366.039 389.038C366.064 370.312 350.851 355.117 332.048 355.094ZM351.95 391.461C351.846 395.169 351.205 398.131 350.028 400.348C348.852 402.564 346.861 404.159 344.056 405.133C341.255 406.108 337.346 406.585 332.328 406.564H331.697C326.684 406.584 322.775 406.107 319.97 405.133C317.164 404.158 315.173 402.563 313.996 400.348C312.82 398.127 312.18 395.165 312.075 391.461C311.979 390.063 311.979 388.66 312.075 387.262C312.134 385.255 312.298 383.253 312.569 381.263C312.827 379.432 313.059 378.176 313.31 376.888C313.447 376.221 313.486 376.01 313.56 375.733C313.596 375.582 313.682 375.448 313.804 375.352C313.926 375.255 314.077 375.202 314.232 375.201H314.327L318.719 375.885C318.88 375.914 319.025 375.998 319.129 376.123C319.234 376.248 319.291 376.406 319.29 376.568C319.293 376.603 319.293 376.638 319.29 376.673L319.057 377.874C318.836 379.082 318.615 380.616 318.392 382.479C318.165 384.391 318.044 386.315 318.03 388.241C318.004 391.926 318.376 394.653 319.146 396.421C319.535 397.294 320.128 398.062 320.876 398.661C321.623 399.26 322.504 399.672 323.443 399.864C326.03 400.408 328.672 400.644 331.314 400.566H332.721C335.36 400.642 337.998 400.406 340.581 399.861C341.518 399.666 342.394 399.251 343.138 398.651C343.881 398.051 344.47 397.284 344.857 396.412C345.637 394.641 346.009 391.917 345.972 388.238C345.959 386.313 345.839 384.389 345.616 382.476C345.389 380.618 345.165 379.083 344.944 377.871L344.712 376.671C344.71 376.636 344.71 376.6 344.712 376.565C344.71 376.402 344.767 376.242 344.873 376.117C344.979 375.991 345.127 375.908 345.289 375.882L349.681 375.198H349.794C349.95 375.197 350.101 375.25 350.224 375.346C350.346 375.443 350.432 375.578 350.466 375.73C350.542 376.01 350.577 376.218 350.717 376.885C350.967 378.201 351.201 379.453 351.457 381.26C351.729 383.25 351.894 385.253 351.953 387.26C352.046 388.659 352.044 390.062 351.947 391.461H351.95Z" fill="#3544B1"/>
<path d="M298.566 323.44C298.566 321.36 299.016 319.51 299.916 317.89C300.816 316.25 302.066 314.98 303.666 314.08C305.286 313.16 307.116 312.7 309.156 312.7C311.656 312.7 313.796 313.36 315.576 314.68C317.356 316 318.546 317.8 319.146 320.08H313.506C313.086 319.2 312.486 318.53 311.706 318.07C310.946 317.61 310.076 317.38 309.096 317.38C307.516 317.38 306.236 317.93 305.256 319.03C304.276 320.13 303.786 321.6 303.786 323.44C303.786 325.28 304.276 326.75 305.256 327.85C306.236 328.95 307.516 329.5 309.096 329.5C310.076 329.5 310.946 329.27 311.706 328.81C312.486 328.35 313.086 327.68 313.506 326.8H319.146C318.546 329.08 317.356 330.88 315.576 332.2C313.796 333.5 311.656 334.15 309.156 334.15C307.116 334.15 305.286 333.7 303.666 332.8C302.066 331.88 300.816 330.61 299.916 328.99C299.016 327.37 298.566 325.52 298.566 323.44ZM346.138 312.94V334H341.008V321.37L336.298 334H332.158L327.418 321.34V334H322.288V312.94H328.348L334.258 327.52L340.108 312.94H346.138ZM357.447 334.21C355.907 334.21 354.527 333.96 353.307 333.46C352.087 332.96 351.107 332.22 350.367 331.24C349.647 330.26 349.267 329.08 349.227 327.7H354.687C354.767 328.48 355.037 329.08 355.497 329.5C355.957 329.9 356.557 330.1 357.297 330.1C358.057 330.1 358.657 329.93 359.097 329.59C359.537 329.23 359.757 328.74 359.757 328.12C359.757 327.6 359.577 327.17 359.217 326.83C358.877 326.49 358.447 326.21 357.927 325.99C357.427 325.77 356.707 325.52 355.767 325.24C354.407 324.82 353.297 324.4 352.437 323.98C351.577 323.56 350.837 322.94 350.217 322.12C349.597 321.3 349.287 320.23 349.287 318.91C349.287 316.95 349.997 315.42 351.417 314.32C352.837 313.2 354.687 312.64 356.967 312.64C359.287 312.64 361.157 313.2 362.577 314.32C363.997 315.42 364.757 316.96 364.857 318.94H359.307C359.267 318.26 359.017 317.73 358.557 317.35C358.097 316.95 357.507 316.75 356.787 316.75C356.167 316.75 355.667 316.92 355.287 317.26C354.907 317.58 354.717 318.05 354.717 318.67C354.717 319.35 355.037 319.88 355.677 320.26C356.317 320.64 357.317 321.05 358.677 321.49C360.037 321.95 361.137 322.39 361.977 322.81C362.837 323.23 363.577 323.84 364.197 324.64C364.817 325.44 365.127 326.47 365.127 327.73C365.127 328.93 364.817 330.02 364.197 331C363.597 331.98 362.717 332.76 361.557 333.34C360.397 333.92 359.027 334.21 357.447 334.21Z" fill="black"/>
<path fill-rule="evenodd" clip-rule="evenodd" d="M536.074 527.313C524.505 538.814 505.44 531.177 489.13 530.86C475.647 530.598 462.689 531.551 450.563 525.65C433.469 517.331 409.657 510.2 407.801 491.28C405.946 472.364 427.718 460.477 443.072 449.274C454.157 441.186 467.285 438.47 480.994 437.876C493.896 437.316 506.776 438.644 517.352 446.054C528.954 454.182 537.452 465.854 540.633 479.659C544.357 495.824 547.839 515.618 536.074 527.313Z" fill="white" fill-opacity="0.7"/>
<path d="M466.782 454.88V456.368H463.822V466H461.998V456.368H459.022V454.88H466.782ZM472.454 466.144C471.622 466.144 470.87 465.957 470.198 465.584C469.526 465.2 468.998 464.667 468.614 463.984C468.23 463.291 468.038 462.491 468.038 461.584C468.038 460.688 468.235 459.893 468.63 459.2C469.024 458.507 469.563 457.973 470.246 457.6C470.928 457.227 471.691 457.04 472.534 457.04C473.376 457.04 474.139 457.227 474.822 457.6C475.504 457.973 476.043 458.507 476.438 459.2C476.832 459.893 477.03 460.688 477.03 461.584C477.03 462.48 476.827 463.275 476.422 463.968C476.016 464.661 475.462 465.2 474.758 465.584C474.064 465.957 473.296 466.144 472.454 466.144ZM472.454 464.56C472.923 464.56 473.36 464.448 473.766 464.224C474.182 464 474.518 463.664 474.774 463.216C475.03 462.768 475.158 462.224 475.158 461.584C475.158 460.944 475.035 460.405 474.79 459.968C474.544 459.52 474.219 459.184 473.814 458.96C473.408 458.736 472.971 458.624 472.502 458.624C472.032 458.624 471.595 458.736 471.19 458.96C470.795 459.184 470.48 459.52 470.246 459.968C470.011 460.405 469.894 460.944 469.894 461.584C469.894 462.533 470.134 463.269 470.614 463.792C471.104 464.304 471.718 464.56 472.454 464.56ZM482.657 466.144C481.825 466.144 481.073 465.957 480.401 465.584C479.729 465.2 479.201 464.667 478.817 463.984C478.433 463.291 478.241 462.491 478.241 461.584C478.241 460.688 478.438 459.893 478.833 459.2C479.227 458.507 479.766 457.973 480.449 457.6C481.131 457.227 481.894 457.04 482.737 457.04C483.579 457.04 484.342 457.227 485.025 457.6C485.707 457.973 486.246 458.507 486.641 459.2C487.035 459.893 487.233 460.688 487.233 461.584C487.233 462.48 487.03 463.275 486.625 463.968C486.219 464.661 485.665 465.2 484.961 465.584C484.267 465.957 483.499 466.144 482.657 466.144ZM482.657 464.56C483.126 464.56 483.563 464.448 483.969 464.224C484.385 464 484.721 463.664 484.977 463.216C485.233 462.768 485.361 462.224 485.361 461.584C485.361 460.944 485.238 460.405 484.993 459.968C484.747 459.52 484.422 459.184 484.017 458.96C483.611 458.736 483.174 458.624 482.705 458.624C482.235 458.624 481.798 458.736 481.393 458.96C480.998 459.184 480.683 459.52 480.449 459.968C480.214 460.405 480.097 460.944 480.097 461.584C480.097 462.533 480.337 463.269 480.817 463.792C481.307 464.304 481.921 464.56 482.657 464.56ZM490.86 454.16V466H489.036V454.16H490.86ZM496.455 466.144C495.761 466.144 495.137 466.021 494.583 465.776C494.039 465.52 493.607 465.179 493.287 464.752C492.967 464.315 492.796 463.829 492.775 463.296H494.663C494.695 463.669 494.871 463.984 495.191 464.24C495.521 464.485 495.932 464.608 496.423 464.608C496.935 464.608 497.329 464.512 497.607 464.32C497.895 464.117 498.039 463.861 498.039 463.552C498.039 463.221 497.879 462.976 497.559 462.816C497.249 462.656 496.753 462.48 496.071 462.288C495.409 462.107 494.871 461.931 494.455 461.76C494.039 461.589 493.676 461.328 493.367 460.976C493.068 460.624 492.919 460.16 492.919 459.584C492.919 459.115 493.057 458.688 493.335 458.304C493.612 457.909 494.007 457.6 494.519 457.376C495.041 457.152 495.639 457.04 496.311 457.04C497.313 457.04 498.119 457.296 498.727 457.808C499.345 458.309 499.676 458.997 499.719 459.872H497.895C497.863 459.477 497.703 459.163 497.415 458.928C497.127 458.693 496.737 458.576 496.247 458.576C495.767 458.576 495.399 458.667 495.143 458.848C494.887 459.029 494.759 459.269 494.759 459.568C494.759 459.803 494.844 460 495.015 460.16C495.185 460.32 495.393 460.448 495.639 460.544C495.884 460.629 496.247 460.741 496.727 460.88C497.367 461.051 497.889 461.227 498.295 461.408C498.711 461.579 499.068 461.835 499.367 462.176C499.665 462.517 499.82 462.971 499.831 463.536C499.831 464.037 499.692 464.485 499.415 464.88C499.137 465.275 498.743 465.584 498.231 465.808C497.729 466.032 497.137 466.144 496.455 466.144Z" fill="black"/>
<g clip-path="url(#clip0_402_9)">
<path d="M438 505C440.76 505 443 502.76 443 500V495H438C435.24 495 433 497.24 433 500C433 502.76 435.24 505 438 505Z" fill="#0ACF83"/>
<path d="M433 490C433 487.24 435.24 485 438 485H443V495H438C435.24 495 433 492.76 433 490Z" fill="#A259FF"/>
<path d="M433 480C433 477.24 435.24 475 438 475H443V485H438C435.24 485 433 482.76 433 480Z" fill="#F24E1E"/>
<path d="M443 475H448C450.76 475 453 477.24 453 480C453 482.76 450.76 485 448 485H443V475Z" fill="#FF7262"/>
<path d="M453 490C453 492.76 450.76 495 448 495C445.24 495 443 492.76 443 490C443 487.24 445.24 485 448 485C450.76 485 453 487.24 453 490Z" fill="#1ABCFE"/>
</g>
<g clip-path="url(#clip1_402_9)">
<path d="M492.434 488.664L479.336 475.566C478.582 474.812 477.359 474.812 476.604 475.566L473.884 478.286L477.334 481.736C478.136 481.465 479.056 481.647 479.695 482.286C480.337 482.929 480.517 483.857 480.24 484.661L483.565 487.986C484.369 487.709 485.298 487.889 485.94 488.532C486.838 489.43 486.838 490.885 485.94 491.783C485.042 492.681 483.587 492.681 482.688 491.783C482.013 491.107 481.846 490.115 482.188 489.283L479.087 486.182L479.087 494.342C479.311 494.453 479.517 494.6 479.695 494.777C480.593 495.675 480.593 497.13 479.695 498.029C478.796 498.927 477.341 498.927 476.444 498.029C475.546 497.13 475.546 495.675 476.444 494.777C476.659 494.562 476.915 494.391 477.196 494.275V486.039C476.914 485.924 476.659 485.753 476.444 485.537C475.763 484.858 475.6 483.859 475.949 483.024L472.547 479.622L463.566 488.603C462.811 489.358 462.811 490.582 463.566 491.336L476.665 504.434C477.419 505.188 478.642 505.188 479.397 504.434L492.434 491.397C493.189 490.642 493.189 489.418 492.434 488.664" fill="#DE4C36"/>
</g>
<path d="M515.194 482.224C515.252 482.253 515.299 482.324 515.37 482.324C515.434 482.324 515.534 482.3 515.54 482.236C515.551 482.154 515.428 482.101 515.352 482.066C515.252 482.025 515.124 482.007 515.03 482.06C515.006 482.072 514.983 482.101 514.995 482.124C515.012 482.201 515.129 482.189 515.194 482.224ZM513.911 482.324C513.981 482.324 514.028 482.253 514.087 482.224C514.151 482.189 514.268 482.201 514.292 482.13C514.303 482.107 514.28 482.078 514.256 482.066C514.163 482.013 514.034 482.031 513.934 482.072C513.858 482.107 513.735 482.16 513.747 482.242C513.753 482.3 513.852 482.329 513.911 482.324ZM526.865 498.658C526.654 498.424 526.554 497.979 526.443 497.504C526.337 497.029 526.214 496.52 525.828 496.192C525.752 496.127 525.675 496.069 525.593 496.022C525.517 495.975 525.435 495.934 525.353 495.905C525.892 494.305 525.681 492.711 525.136 491.27C524.468 489.507 523.303 487.966 522.412 486.911C521.41 485.651 520.438 484.456 520.455 482.693C520.484 480.004 520.754 475.006 516.014 475C510.015 474.988 511.514 481.058 511.45 482.921C511.35 484.292 511.075 485.37 510.132 486.712C509.024 488.03 507.466 490.157 506.728 492.377C506.376 493.426 506.212 494.493 506.365 495.5C505.984 495.84 505.697 496.362 505.392 496.684C505.146 496.936 504.788 497.029 504.396 497.17C504.003 497.311 503.576 497.522 503.312 498.02C503.189 498.248 503.148 498.494 503.148 498.746C503.148 498.975 503.183 499.209 503.218 499.437C503.289 499.912 503.365 500.357 503.265 500.656C502.961 501.5 502.92 502.086 503.136 502.513C503.359 502.941 503.804 503.129 504.314 503.234C505.328 503.445 506.704 503.392 507.788 503.966C508.948 504.576 510.126 504.792 511.063 504.576C511.743 504.423 512.3 504.013 512.581 503.392C513.313 503.386 514.122 503.076 515.411 503.005C516.284 502.935 517.379 503.316 518.639 503.246C518.674 503.38 518.721 503.515 518.785 503.638V503.644C519.272 504.623 520.18 505.068 521.147 504.992C522.119 504.915 523.144 504.347 523.976 503.357C524.773 502.396 526.086 501.998 526.959 501.47C527.392 501.207 527.744 500.879 527.773 500.398C527.796 499.918 527.515 499.385 526.865 498.658ZM515.364 480.115C515.938 478.814 517.368 478.838 517.942 480.091C518.323 480.923 518.153 481.902 517.69 482.458C517.596 482.412 517.344 482.306 516.952 482.171C517.016 482.101 517.133 482.013 517.18 481.902C517.461 481.21 517.168 480.32 516.647 480.302C516.219 480.273 515.832 480.935 515.956 481.65C515.715 481.533 515.405 481.445 515.194 481.392C515.135 480.988 515.176 480.537 515.364 480.115ZM512.979 479.441C513.571 479.441 514.198 480.273 514.098 481.404C513.893 481.462 513.682 481.55 513.501 481.673C513.571 481.152 513.307 480.496 512.938 480.525C512.446 480.566 512.364 481.767 512.833 482.171C512.891 482.218 512.944 482.16 512.487 482.494C511.573 481.638 511.872 479.441 512.979 479.441ZM512.182 482.997C512.546 482.728 512.979 482.412 513.009 482.382C513.284 482.124 513.799 481.55 514.643 481.55C515.059 481.55 515.557 481.685 516.161 482.072C516.53 482.312 516.823 482.329 517.485 482.617C517.977 482.822 518.287 483.185 518.1 483.683C517.948 484.099 517.455 484.527 516.77 484.743C516.12 484.954 515.61 485.681 514.532 485.616C514.303 485.605 514.122 485.558 513.969 485.493C513.501 485.288 513.255 484.884 512.798 484.614C512.294 484.333 512.024 484.005 511.936 483.718C511.854 483.431 511.936 483.191 512.182 482.997ZM512.376 502.566C512.218 504.623 509.804 504.582 507.964 503.621C506.212 502.695 503.945 503.24 503.482 502.338C503.341 502.062 503.341 501.594 503.634 500.791V500.779C503.775 500.334 503.669 499.842 503.599 499.379C503.529 498.922 503.494 498.5 503.652 498.207C503.857 497.815 504.15 497.674 504.519 497.545C505.122 497.328 505.21 497.346 505.667 496.965C505.99 496.631 506.224 496.209 506.505 495.91C506.804 495.588 507.091 495.436 507.542 495.506C508.017 495.576 508.427 495.905 508.825 496.444L509.974 498.529C510.53 499.695 512.499 501.365 512.376 502.566ZM512.294 501.049C512.054 500.662 511.731 500.252 511.45 499.9C511.866 499.9 512.282 499.771 512.428 499.379C512.563 499.016 512.428 498.506 511.995 497.92C511.204 496.854 509.751 496.016 509.751 496.016C508.96 495.524 508.515 494.92 508.31 494.264C508.105 493.608 508.134 492.899 508.292 492.202C508.597 490.86 509.382 489.553 509.886 488.733C510.02 488.634 509.933 488.921 509.376 489.952C508.878 490.895 507.946 493.075 509.224 494.78C509.259 493.567 509.546 492.331 510.032 491.176C510.735 489.571 512.218 486.788 512.335 484.573C512.399 484.62 512.604 484.761 512.698 484.814C512.967 484.972 513.173 485.206 513.436 485.417C514.163 486.003 515.106 485.956 515.92 485.487C516.284 485.282 516.577 485.048 516.852 484.96C517.432 484.778 517.895 484.456 518.158 484.081C518.61 485.862 519.664 488.434 520.338 489.688C520.695 490.356 521.41 491.768 521.721 493.473C521.914 493.467 522.131 493.497 522.359 493.555C523.168 491.463 521.674 489.208 520.994 488.581C520.719 488.311 520.707 488.194 520.842 488.2C521.58 488.856 522.553 490.175 522.904 491.657C523.068 492.336 523.098 493.045 522.928 493.748C523.888 494.147 525.031 494.797 524.726 495.787C524.597 495.781 524.539 495.787 524.48 495.787C524.668 495.196 524.252 494.756 523.144 494.258C521.996 493.754 521.035 493.754 520.9 494.991C520.192 495.237 519.828 495.852 519.647 496.59C519.483 497.246 519.436 498.037 519.389 498.928C519.36 499.379 519.178 499.982 518.99 500.627C517.11 501.968 514.497 502.554 512.294 501.049ZM527.375 500.375C527.322 501.359 524.961 501.541 523.672 503.099C522.898 504.019 521.949 504.529 521.117 504.593C520.285 504.658 519.565 504.312 519.143 503.462C518.867 502.812 519.002 502.109 519.207 501.336C519.424 500.504 519.746 499.648 519.787 498.957C519.834 498.066 519.887 497.287 520.033 496.69C520.186 496.086 520.42 495.682 520.836 495.453C520.854 495.442 520.877 495.436 520.895 495.424C520.941 496.197 521.322 496.983 521.996 497.152C522.734 497.346 523.795 496.713 524.246 496.197C524.773 496.18 525.166 496.145 525.57 496.496C526.15 496.994 525.986 498.272 526.572 498.934C527.193 499.613 527.392 500.076 527.375 500.375ZM512.411 483.712C512.528 483.824 512.686 483.976 512.88 484.128C513.266 484.433 513.805 484.749 514.479 484.749C515.159 484.749 515.797 484.404 516.342 484.116C516.629 483.964 516.981 483.706 517.209 483.507C517.438 483.308 517.555 483.138 517.391 483.12C517.227 483.103 517.239 483.273 517.039 483.419C516.782 483.607 516.471 483.853 516.225 483.993C515.791 484.239 515.083 484.591 514.473 484.591C513.864 484.591 513.378 484.31 513.014 484.023C512.833 483.876 512.68 483.73 512.563 483.618C512.475 483.536 512.452 483.349 512.311 483.331C512.229 483.325 512.206 483.548 512.411 483.712Z" fill="black"/>
<path fill-rule="evenodd" clip-rule="evenodd" d="M295.317 490.593C296.287 522.545 252.158 533.458 224.969 550.269C206.35 561.781 187.179 571.396 165.293 570.987C143.852 570.588 126.053 559.344 107.802 548.084C80.4388 531.203 43.6625 521.549 34.9776 490.593C25.0473 455.198 33.4695 410.208 62.9631 388.263C91.4511 367.067 131.202 383.702 165.293 393.634C188.387 400.362 202.168 420.056 221.451 434.435C247.227 453.656 294.341 458.454 295.317 490.593Z" fill="white"/>
<path fill-rule="evenodd" clip-rule="evenodd" d="M107.265 829.034C72.015 806.821 49.0095 770.442 39.8259 731.811C31.0717 694.988 35.9733 655.644 59.4619 627.957C80.7379 602.878 119.67 605.741 153.17 598.207C188.643 590.23 223.33 567.292 257.821 583.348C294.327 600.343 323.255 639.706 323.202 677.361C323.153 711.812 274.226 720.108 257.586 749.367C239.76 780.709 258.21 831.641 225.64 848.903C190.878 867.326 142.946 851.518 107.265 829.034Z" fill="#FFC068"/>
<path d="M166.793 525.593H172.281V531.206H175.059C176.357 531.2 177.646 530.984 178.874 530.567C179.52 530.353 180.142 530.073 180.729 529.729C179.978 528.689 179.531 527.459 179.441 526.179C179.211 524.311 179.692 522.424 180.788 520.894L181.366 520.227L182.053 520.78C183.875 522.117 185.11 524.106 185.498 526.332C187.617 525.681 189.908 525.894 191.87 526.925L192.625 527.363L192.229 528.137C191.426 529.491 190.239 530.576 188.818 531.254C187.397 531.932 185.807 532.171 184.249 531.943C179.496 543.784 169.155 549.391 156.595 549.391C153.467 549.577 150.347 548.915 147.563 547.476C144.78 546.036 142.437 543.872 140.781 541.212L140.727 541.118L140.232 540.113C139.114 537.577 138.678 534.792 138.966 532.035L139.042 531.204H143.73V525.593H149.221V520.102H160.202V514.612H166.791V525.593H166.793Z" fill="#3A4E55"/>
<path d="M184.584 527.671C184.621 526.465 184.357 525.27 183.816 524.192C183.274 523.114 182.472 522.189 181.482 521.5C180.625 522.759 180.22 524.271 180.335 525.79C180.45 527.308 181.077 528.743 182.114 529.858C180.076 531.369 177.596 532.166 175.059 532.127H139.869C139.567 534.935 140.073 537.771 141.328 540.302L141.728 541.034C141.982 541.464 142.259 541.88 142.558 542.279C144.004 542.372 145.338 542.405 146.558 542.377C148.536 542.39 150.505 542.103 152.397 541.527C152.503 541.49 152.619 541.497 152.72 541.546C152.82 541.595 152.897 541.682 152.934 541.788C152.971 541.894 152.964 542.01 152.914 542.111C152.865 542.211 152.778 542.288 152.673 542.325C152.476 542.393 152.27 542.458 152.058 542.518C150.741 542.886 149.387 543.106 148.022 543.174C148.118 543.174 147.921 543.189 147.921 543.189L147.742 543.204C146.278 543.269 144.813 543.264 143.349 543.191L143.328 543.207C145.034 544.981 147.1 546.37 149.388 547.279C151.676 548.189 154.131 548.597 156.59 548.478C168.753 548.478 179.069 543.086 183.639 530.978C186.881 531.311 189.996 530.484 191.411 527.719C190.354 527.183 189.187 526.9 188.002 526.891C186.817 526.883 185.646 527.15 184.582 527.671" fill="#00AADA"/>
<path d="M184.584 527.671C184.621 526.465 184.357 525.27 183.816 524.192C183.274 523.114 182.472 522.189 181.482 521.5C180.625 522.759 180.22 524.271 180.335 525.79C180.45 527.308 181.077 528.743 182.114 529.858C180.076 531.369 177.596 532.166 175.059 532.127H141.954C141.773 534.088 142.103 536.062 142.91 537.858C143.717 539.654 144.975 541.211 146.561 542.378C148.539 542.39 150.507 542.103 152.399 541.527C152.451 541.508 152.507 541.501 152.562 541.504C152.618 541.508 152.672 541.522 152.722 541.546C152.772 541.57 152.816 541.604 152.853 541.646C152.89 541.687 152.918 541.736 152.936 541.788C152.954 541.84 152.962 541.896 152.958 541.951C152.955 542.007 152.941 542.061 152.917 542.111C152.892 542.16 152.858 542.205 152.817 542.242C152.775 542.279 152.727 542.307 152.675 542.325C152.478 542.393 152.272 542.458 152.06 542.518C150.708 542.896 149.319 543.127 147.917 543.204L147.875 543.156C152.014 545.28 158.017 545.272 164.898 542.629C172.751 539.457 179.62 534.256 184.805 527.559L184.586 527.664" fill="#27B9EC"/>
<path d="M139.935 535.789C140.142 537.359 140.613 538.884 141.328 540.297L141.728 541.03C141.982 541.46 142.258 541.875 142.558 542.275C144.004 542.368 145.338 542.401 146.558 542.373C148.536 542.385 150.505 542.098 152.397 541.522C152.449 541.504 152.505 541.497 152.56 541.5C152.616 541.503 152.67 541.517 152.72 541.542C152.769 541.566 152.814 541.6 152.851 541.641C152.888 541.683 152.916 541.731 152.934 541.784C152.952 541.836 152.96 541.892 152.956 541.947C152.953 542.002 152.939 542.056 152.914 542.106C152.89 542.156 152.856 542.201 152.815 542.238C152.773 542.274 152.725 542.303 152.673 542.321C152.476 542.388 152.27 542.454 152.058 542.513C150.707 542.886 149.32 543.112 147.921 543.185H147.703C147.066 543.22 146.39 543.242 145.686 543.242C144.918 543.242 144.135 543.226 143.279 543.185C144.991 544.961 147.062 546.35 149.354 547.261C151.647 548.171 154.107 548.581 156.571 548.463C166.983 548.463 176.039 544.51 181.289 535.776L139.935 535.789Z" fill="#088CB9"/>
<path d="M142.269 535.789C142.799 538.453 144.336 540.811 146.558 542.373C148.536 542.385 150.505 542.098 152.397 541.522C152.503 541.486 152.619 541.493 152.72 541.542C152.82 541.591 152.897 541.678 152.934 541.784C152.971 541.889 152.963 542.006 152.914 542.106C152.865 542.207 152.778 542.284 152.673 542.321C152.476 542.388 152.27 542.454 152.058 542.513C150.701 542.886 149.307 543.111 147.902 543.185C152.04 545.309 158.025 545.278 164.905 542.633C169.151 540.961 173.117 538.653 176.667 535.787L142.269 535.789Z" fill="#039CC7"/>
<path d="M148.632 526.905H149.008V530.871H148.632V526.905ZM147.91 526.905H148.302V530.871H147.91V526.905ZM147.188 526.905H147.58V530.871H147.191V526.905H147.188ZM146.467 526.905H146.858V530.871H146.469V526.905H146.467ZM145.745 526.905H146.136V530.871H145.747V526.905H145.745ZM145.038 526.905H145.414V530.871H145.043V526.905H145.038ZM144.642 526.509H149.4V531.269H144.644V526.509H144.642ZM154.125 521.415H154.501V525.381H154.125V521.415ZM153.403 521.415H153.795V525.381H153.403V521.415ZM152.681 521.415H153.073V525.381H152.681V521.415ZM151.959 521.415H152.351V525.381H151.959V521.415ZM151.238 521.415H151.627V525.381H151.238V521.415ZM150.531 521.415H150.907V525.381H150.531V521.415ZM150.135 521.019H154.895V525.779H150.137V521.017L150.135 521.019Z" fill="#00ACD3"/>
<path d="M154.125 526.905H154.501V530.871H154.125V526.905ZM153.403 526.905H153.795V530.871H153.403V526.905ZM152.681 526.905H153.073V530.871H152.681V526.905ZM151.959 526.905H152.351V530.871H151.959V526.905ZM151.238 526.905H151.627V530.871H151.238V526.905ZM150.531 526.905H150.907V530.871H150.531V526.905ZM150.135 526.509H154.895V531.269H150.137V526.509H150.135Z" fill="#26C2EE"/>
<path d="M159.613 526.905H159.99V530.871H159.613V526.905ZM158.892 526.905H159.283V530.871H158.894V526.905H158.892ZM158.17 526.905H158.561V530.871H158.172V526.905H158.17ZM157.448 526.905H157.844V530.871H157.452V526.905H157.448ZM156.726 526.905H157.117V530.871H156.726V526.905ZM156.019 526.905H156.396V530.871H156.019V526.905ZM155.623 526.509H160.383V531.269H155.628V526.509H155.623Z" fill="#00ACD3"/>
<path d="M159.613 521.415H159.99V525.381H159.613V521.415ZM158.892 521.415H159.283V525.381H158.894V521.415H158.892ZM158.17 521.415H158.561V525.381H158.172V521.415H158.17ZM157.448 521.415H157.844V525.381H157.452V521.415H157.448ZM156.726 521.415H157.117V525.381H156.726V521.415ZM156.019 521.415H156.396V525.381H156.019V521.415ZM155.623 521.019H160.383V525.779H155.628V521.017L155.623 521.019ZM165.106 526.905H165.482V530.871H165.106V526.905ZM164.384 526.905H164.776V530.871H164.384V526.905ZM163.662 526.905H164.054V530.871H163.662V526.905ZM162.941 526.905H163.332V530.871H162.941V526.905ZM162.219 526.905H162.61V530.871H162.219V526.905ZM161.512 526.905H161.888V530.871H161.512V526.905ZM161.125 526.509H165.885V531.269H161.125V526.509Z" fill="#26C2EE"/>
<path d="M165.106 521.415H165.482V525.381H165.106V521.415ZM164.384 521.415H164.776V525.381H164.384V521.415ZM163.662 521.415H164.054V525.381H163.662V521.415ZM162.941 521.415H163.332V525.381H162.941V521.415ZM162.219 521.415H162.61V525.381H162.219V521.415ZM161.512 521.415H161.888V525.381H161.512V521.415ZM161.116 521.019H165.876V525.779H161.125V521.017L161.116 521.019Z" fill="#00ACD3"/>
<path d="M165.106 515.922H165.482V519.888H165.106V515.922ZM164.384 515.922H164.776V519.888H164.384V515.922ZM163.663 515.922H164.054V519.888H163.663V515.922ZM162.941 515.922H163.332V519.888H162.941V515.922ZM162.219 515.922H162.61V519.888H162.219V515.922ZM161.512 515.922H161.888V519.888H161.512V515.922ZM161.125 515.526H165.885V520.286H161.125V515.526Z" fill="#26C2EE"/>
<path d="M170.597 526.905H170.969V530.871H170.597V526.905ZM169.875 526.905H170.264V530.871H169.875V526.905ZM169.153 526.905H169.545V530.871H169.153V526.905ZM168.431 526.905H168.823V530.871H168.431V526.905ZM167.709 526.905H168.101V530.871H167.709V526.905ZM167.003 526.905H167.379V530.871H167.003V526.905ZM166.607 526.509H171.367V531.269H166.609V526.509H166.607Z" fill="#00ACD3"/>
<path d="M154.598 538.985C154.857 538.985 155.111 539.062 155.327 539.206C155.543 539.35 155.711 539.555 155.81 539.795C155.909 540.035 155.935 540.299 155.885 540.553C155.834 540.808 155.709 541.042 155.526 541.225C155.342 541.409 155.108 541.534 154.854 541.584C154.599 541.635 154.335 541.609 154.095 541.51C153.855 541.41 153.65 541.242 153.506 541.026C153.362 540.811 153.285 540.557 153.285 540.297C153.285 539.949 153.423 539.615 153.669 539.369C153.916 539.123 154.249 538.985 154.598 538.985Z" fill="#D5EEF2"/>
<path d="M154.597 539.357C154.714 539.356 154.83 539.378 154.939 539.42C154.888 539.45 154.844 539.491 154.812 539.54C154.779 539.589 154.758 539.645 154.751 539.704C154.744 539.762 154.75 539.822 154.769 539.877C154.789 539.933 154.821 539.983 154.863 540.025C154.905 540.066 154.956 540.097 155.012 540.115C155.068 540.133 155.128 540.138 155.186 540.13C155.245 540.121 155.3 540.099 155.349 540.066C155.397 540.032 155.437 539.988 155.466 539.936C155.543 540.122 155.559 540.328 155.51 540.524C155.462 540.72 155.351 540.895 155.196 541.023C155.04 541.151 154.848 541.226 154.646 541.236C154.445 541.247 154.246 541.193 154.078 541.081C153.91 540.97 153.782 540.808 153.713 540.618C153.644 540.429 153.638 540.222 153.696 540.029C153.753 539.836 153.871 539.666 154.032 539.545C154.194 539.424 154.389 539.358 154.591 539.357H154.597ZM131.375 536.263H192.45C191.12 535.927 188.243 535.472 188.716 533.728C186.299 536.526 180.467 535.697 178.995 534.312C177.356 536.69 167.814 535.787 167.149 533.934C165.095 536.34 158.727 536.34 156.673 533.934C156.017 535.787 146.467 536.69 144.828 534.312C143.356 535.692 137.526 536.526 135.107 533.728C135.582 535.478 132.701 535.927 131.373 536.263" fill="#3A4E55"/>
<path d="M158.087 548.446C155.4 547.301 153.247 545.182 152.058 542.515C150.637 542.892 149.18 543.112 147.711 543.172C147.075 543.207 146.407 543.225 145.705 543.226C144.897 543.226 144.046 543.202 143.15 543.154C144.878 544.953 146.973 546.359 149.292 547.276C151.612 548.194 154.102 548.601 156.592 548.47C157.094 548.47 157.592 548.46 158.087 548.441" fill="#C0DBE1"/>
<path d="M153.265 544.628C152.789 543.969 152.384 543.261 152.058 542.515C150.637 542.892 149.18 543.112 147.711 543.172C149.441 544.039 151.333 544.534 153.265 544.624" fill="#D5EEF2"/>
<path d="M62.75 417.94C64.97 417.94 66.91 418.38 68.57 419.26C70.23 420.14 71.51 421.38 72.41 422.98C73.33 424.56 73.79 426.39 73.79 428.47C73.79 430.53 73.33 432.36 72.41 433.96C71.51 435.56 70.22 436.8 68.54 437.68C66.88 438.56 64.95 439 62.75 439H54.86V417.94H62.75ZM62.42 434.56C64.36 434.56 65.87 434.03 66.95 432.97C68.03 431.91 68.57 430.41 68.57 428.47C68.57 426.53 68.03 425.02 66.95 423.94C65.87 422.86 64.36 422.32 62.42 422.32H59.99V434.56H62.42ZM92.4369 430.36C92.4369 430.84 92.4069 431.34 92.3469 431.86H80.7369C80.8169 432.9 81.1469 433.7 81.7269 434.26C82.3269 434.8 83.0569 435.07 83.9169 435.07C85.1969 435.07 86.0869 434.53 86.5869 433.45H92.0469C91.7669 434.55 91.2569 435.54 90.5169 436.42C89.7969 437.3 88.8869 437.99 87.7869 438.49C86.6869 438.99 85.4569 439.24 84.0969 439.24C82.4569 439.24 80.9969 438.89 79.7169 438.19C78.4369 437.49 77.4369 436.49 76.7169 435.19C75.9969 433.89 75.6369 432.37 75.6369 430.63C75.6369 428.89 75.9869 427.37 76.6869 426.07C77.4069 424.77 78.4069 423.77 79.6869 423.07C80.9669 422.37 82.4369 422.02 84.0969 422.02C85.7169 422.02 87.1569 422.36 88.4169 423.04C89.6769 423.72 90.6569 424.69 91.3569 425.95C92.0769 427.21 92.4369 428.68 92.4369 430.36ZM87.1869 429.01C87.1869 428.13 86.8869 427.43 86.2869 426.91C85.6869 426.39 84.9369 426.13 84.0369 426.13C83.1769 426.13 82.4469 426.38 81.8469 426.88C81.2669 427.38 80.9069 428.09 80.7669 429.01H87.1869ZM102.673 434.2L106.303 422.26H111.763L105.823 439H99.4932L93.5532 422.26H99.0432L102.673 434.2ZM123.883 439.21C121.903 439.21 120.083 438.75 118.423 437.83C116.783 436.91 115.473 435.63 114.493 433.99C113.532 432.33 113.052 430.47 113.052 428.41C113.052 426.35 113.532 424.5 114.493 422.86C115.473 421.22 116.783 419.94 118.423 419.02C120.083 418.1 121.903 417.64 123.883 417.64C125.863 417.64 127.673 418.1 129.313 419.02C130.973 419.94 132.273 421.22 133.213 422.86C134.173 424.5 134.653 426.35 134.653 428.41C134.653 430.47 134.173 432.33 133.213 433.99C132.253 435.63 130.953 436.91 129.313 437.83C127.673 438.75 125.863 439.21 123.883 439.21ZM123.883 434.53C125.563 434.53 126.903 433.97 127.902 432.85C128.923 431.73 129.433 430.25 129.433 428.41C129.433 426.55 128.923 425.07 127.902 423.97C126.903 422.85 125.563 422.29 123.883 422.29C122.183 422.29 120.823 422.84 119.803 423.94C118.803 425.04 118.303 426.53 118.303 428.41C118.303 430.27 118.803 431.76 119.803 432.88C120.823 433.98 122.183 434.53 123.883 434.53ZM142.636 424.63C143.136 423.85 143.826 423.22 144.706 422.74C145.586 422.26 146.616 422.02 147.796 422.02C149.176 422.02 150.426 422.37 151.546 423.07C152.666 423.77 153.546 424.77 154.186 426.07C154.846 427.37 155.176 428.88 155.176 430.6C155.176 432.32 154.846 433.84 154.186 435.16C153.546 436.46 152.666 437.47 151.546 438.19C150.426 438.89 149.176 439.24 147.796 439.24C146.636 439.24 145.606 439 144.706 438.52C143.826 438.04 143.136 437.42 142.636 436.66V446.98H137.506V422.26H142.636V424.63ZM149.956 430.6C149.956 429.32 149.596 428.32 148.876 427.6C148.176 426.86 147.306 426.49 146.266 426.49C145.246 426.49 144.376 426.86 143.656 427.6C142.956 428.34 142.606 429.35 142.606 430.63C142.606 431.91 142.956 432.92 143.656 433.66C144.376 434.4 145.246 434.77 146.266 434.77C147.286 434.77 148.156 434.4 148.876 433.66C149.596 432.9 149.956 431.88 149.956 430.6ZM164.678 439.24C163.218 439.24 161.918 438.99 160.778 438.49C159.638 437.99 158.738 437.31 158.078 436.45C157.418 435.57 157.048 434.59 156.968 433.51H162.038C162.098 434.09 162.368 434.56 162.848 434.92C163.328 435.28 163.918 435.46 164.618 435.46C165.258 435.46 165.748 435.34 166.088 435.1C166.448 434.84 166.628 434.51 166.628 434.11C166.628 433.63 166.378 433.28 165.878 433.06C165.378 432.82 164.568 432.56 163.448 432.28C162.248 432 161.248 431.71 160.448 431.41C159.648 431.09 158.958 430.6 158.378 429.94C157.798 429.26 157.508 428.35 157.508 427.21C157.508 426.25 157.768 425.38 158.288 424.6C158.828 423.8 159.608 423.17 160.628 422.71C161.668 422.25 162.898 422.02 164.318 422.02C166.418 422.02 168.068 422.54 169.268 423.58C170.488 424.62 171.188 426 171.368 427.72H166.628C166.548 427.14 166.288 426.68 165.848 426.34C165.428 426 164.868 425.83 164.168 425.83C163.568 425.83 163.108 425.95 162.788 426.19C162.468 426.41 162.308 426.72 162.308 427.12C162.308 427.6 162.558 427.96 163.058 428.2C163.578 428.44 164.378 428.68 165.458 428.92C166.698 429.24 167.708 429.56 168.488 429.88C169.268 430.18 169.948 430.68 170.528 431.38C171.128 432.06 171.438 432.98 171.458 434.14C171.458 435.12 171.178 436 170.618 436.78C170.078 437.54 169.288 438.14 168.248 438.58C167.228 439.02 166.038 439.24 164.678 439.24Z" fill="black"/>
<path d="M147.57 622.94V627.05H138.99V631.49H145.41V635.48H138.99V644H133.86V622.94H147.57ZM155.396 630.05C155.996 629.13 156.746 628.41 157.646 627.89C158.546 627.35 159.546 627.08 160.646 627.08V632.51H159.236C157.956 632.51 156.996 632.79 156.356 633.35C155.716 633.89 155.396 634.85 155.396 636.23V644H150.266V627.26H155.396V630.05ZM170.718 644.24C169.078 644.24 167.598 643.89 166.278 643.19C164.978 642.49 163.948 641.49 163.188 640.19C162.448 638.89 162.078 637.37 162.078 635.63C162.078 633.91 162.458 632.4 163.218 631.1C163.978 629.78 165.018 628.77 166.338 628.07C167.658 627.37 169.138 627.02 170.778 627.02C172.418 627.02 173.898 627.37 175.218 628.07C176.538 628.77 177.578 629.78 178.338 631.1C179.098 632.4 179.478 633.91 179.478 635.63C179.478 637.35 179.088 638.87 178.308 640.19C177.548 641.49 176.498 642.49 175.158 643.19C173.838 643.89 172.358 644.24 170.718 644.24ZM170.718 639.8C171.698 639.8 172.528 639.44 173.208 638.72C173.908 638 174.258 636.97 174.258 635.63C174.258 634.29 173.918 633.26 173.238 632.54C172.578 631.82 171.758 631.46 170.778 631.46C169.778 631.46 168.948 631.82 168.288 632.54C167.628 633.24 167.298 634.27 167.298 635.63C167.298 636.97 167.618 638 168.258 638.72C168.918 639.44 169.738 639.8 170.718 639.8ZM192.4 627.08C194.36 627.08 195.92 627.72 197.08 629C198.26 630.26 198.85 632 198.85 634.22V644H193.75V634.91C193.75 633.79 193.46 632.92 192.88 632.3C192.3 631.68 191.52 631.37 190.54 631.37C189.56 631.37 188.78 631.68 188.2 632.3C187.62 632.92 187.33 633.79 187.33 634.91V644H182.2V627.26H187.33V629.48C187.85 628.74 188.55 628.16 189.43 627.74C190.31 627.3 191.3 627.08 192.4 627.08ZM211.745 639.65V644H209.135C207.275 644 205.825 643.55 204.785 642.65C203.745 641.73 203.225 640.24 203.225 638.18V631.52H201.185V627.26H203.225V623.18H208.355V627.26H211.715V631.52H208.355V638.24C208.355 638.74 208.475 639.1 208.715 639.32C208.955 639.54 209.355 639.65 209.915 639.65H211.745ZM230.382 635.36C230.382 635.84 230.352 636.34 230.292 636.86H218.682C218.762 637.9 219.092 638.7 219.672 639.26C220.272 639.8 221.002 640.07 221.862 640.07C223.142 640.07 224.032 639.53 224.532 638.45H229.992C229.712 639.55 229.202 640.54 228.462 641.42C227.742 642.3 226.832 642.99 225.732 643.49C224.632 643.99 223.402 644.24 222.042 644.24C220.402 644.24 218.942 643.89 217.662 643.19C216.382 642.49 215.382 641.49 214.662 640.19C213.942 638.89 213.582 637.37 213.582 635.63C213.582 633.89 213.932 632.37 214.632 631.07C215.352 629.77 216.352 628.77 217.632 628.07C218.912 627.37 220.382 627.02 222.042 627.02C223.662 627.02 225.102 627.36 226.362 628.04C227.622 628.72 228.602 629.69 229.302 630.95C230.022 632.21 230.382 633.68 230.382 635.36ZM225.132 634.01C225.132 633.13 224.832 632.43 224.232 631.91C223.632 631.39 222.882 631.13 221.982 631.13C221.122 631.13 220.392 631.38 219.792 631.88C219.212 632.38 218.852 633.09 218.712 634.01H225.132ZM243.289 627.08C245.249 627.08 246.809 627.72 247.969 629C249.149 630.26 249.739 632 249.739 634.22V644H244.639V634.91C244.639 633.79 244.349 632.92 243.769 632.3C243.189 631.68 242.409 631.37 241.429 631.37C240.449 631.37 239.669 631.68 239.089 632.3C238.509 632.92 238.219 633.79 238.219 634.91V644H233.089V627.26H238.219V629.48C238.739 628.74 239.439 628.16 240.319 627.74C241.199 627.3 242.189 627.08 243.289 627.08ZM252.283 635.6C252.283 633.88 252.603 632.37 253.243 631.07C253.903 629.77 254.793 628.77 255.913 628.07C257.033 627.37 258.283 627.02 259.663 627.02C260.763 627.02 261.763 627.25 262.663 627.71C263.583 628.17 264.303 628.79 264.823 629.57V621.8H269.953V644H264.823V641.6C264.343 642.4 263.653 643.04 262.753 643.52C261.873 644 260.843 644.24 259.663 644.24C258.283 644.24 257.033 643.89 255.913 643.19C254.793 642.47 253.903 641.46 253.243 640.16C252.603 638.84 252.283 637.32 252.283 635.6ZM264.823 635.63C264.823 634.35 264.463 633.34 263.743 632.6C263.043 631.86 262.183 631.49 261.163 631.49C260.143 631.49 259.273 631.86 258.553 632.6C257.853 633.32 257.503 634.32 257.503 635.6C257.503 636.88 257.853 637.9 258.553 638.66C259.273 639.4 260.143 639.77 261.163 639.77C262.183 639.77 263.043 639.4 263.743 638.66C264.463 637.92 264.823 636.91 264.823 635.63Z" fill="black"/>
<g clip-path="url(#clip2_402_9)">
<path d="M113.335 671H124.919L95.9593 720.955L67 671H89.1538L95.9593 682.584L102.62 671H113.335Z" fill="#41B883"/>
<path d="M67 671L95.9593 720.955L124.919 671H113.335L95.9593 700.973L78.4389 671H67Z" fill="#41B883"/>
<path d="M78.439 671L95.9593 701.118L113.335 671H102.62L95.9593 682.584L89.1539 671H78.439Z" fill="#35495E"/>
</g>
<path d="M162.239 671.846C160.807 669.385 157.228 669.385 155.796 671.846L140.191 698.677C138.76 701.139 140.55 704.216 143.413 704.216H155.595C154.371 703.147 153.918 701.297 154.844 699.71L166.662 679.451L162.24 671.846H162.239Z" fill="#80EEC0"/>
<path d="M172.127 677.732C173.312 675.717 176.274 675.717 177.459 677.732L190.373 699.684C191.558 701.699 190.077 704.216 187.707 704.216H161.879C159.509 704.216 158.027 701.698 159.212 699.684L172.127 677.731V677.732Z" fill="#00DC82"/>
<path d="M189.328 707.81C191.898 707.81 193.634 709.257 193.74 711.487H191.546C191.443 710.449 190.613 709.751 189.324 709.751C188.126 709.751 187.38 710.296 187.38 711.13C187.38 711.882 187.918 712.26 188.688 712.522L188.856 712.577L189.031 712.629L189.211 712.678L189.491 712.749L189.78 712.818L190.276 712.933L190.571 713.004L190.838 713.071L191.016 713.119L191.193 713.17C191.222 713.179 191.252 713.187 191.281 713.196L191.456 713.252L191.629 713.311C191.657 713.321 191.686 713.331 191.714 713.342L191.883 713.407C193.056 713.878 193.997 714.689 193.997 716.442C193.997 718.655 192.139 720 189.466 720C186.706 720 184.901 718.365 184.779 715.863L184.777 715.861H186.982C187.104 717.192 188.007 718.04 189.465 718.04C190.767 718.04 191.671 717.53 191.671 716.474C191.671 715.668 191.019 715.292 190.128 715.013L189.947 714.958L189.76 714.905L189.372 714.803L188.663 714.623L188.456 714.568L188.25 714.511L188.045 714.451C187.976 714.43 187.908 714.409 187.84 714.387L187.638 714.318C186.297 713.847 185.139 713.049 185.139 711.128C185.141 709.17 186.859 707.81 189.329 707.81H189.328ZM153.286 711.281V716.151C153.286 717.325 154.015 718.142 155.109 718.142C156.307 718.142 157.14 717.223 157.14 715.963V711.281H159.275V719.862H157.14V718.531C156.654 719.468 155.665 719.995 154.415 719.995C152.436 719.995 151.151 718.599 151.151 716.59V711.281H153.286V711.281ZM141.482 707.945L146.742 716.355V707.945H149.033V719.862H146.568L141.291 711.469V719.862H139V707.945H141.482ZM183.404 707.945V716.457C183.404 718.756 182.276 719.862 180.367 719.862H177.7V717.838H180.426C180.608 717.838 180.782 717.767 180.912 717.64C180.976 717.578 181.027 717.504 181.061 717.422C181.096 717.34 181.114 717.252 181.114 717.163V707.945H183.404H183.404ZM173.301 708.693V711.281H175.732V713.035H173.301V717.294C173.301 717.437 173.359 717.575 173.462 717.676C173.566 717.778 173.706 717.835 173.851 717.834H175.732V719.859H174.325C172.415 719.859 171.166 718.769 171.166 716.864V713.036H169.448V711.281H170.526C171.028 711.281 171.321 710.987 171.321 710.501V708.693H173.301ZM162.903 711.145L164.656 713.615L166.392 711.145H168.736L165.801 715.249L168.961 719.726H166.705L164.656 716.866L162.608 719.726H160.333L163.493 715.249L160.577 711.145H162.903Z" fill="black"/>
<defs>
<clipPath id="clip0_402_9">
<rect width="20" height="30" fill="white" transform="translate(433 475)"/>
</clipPath>
<clipPath id="clip1_402_9">
<rect width="30" height="30" fill="white" transform="translate(463 475)"/>
</clipPath>
<clipPath id="clip2_402_9">
<rect width="57.9186" height="50" fill="white" transform="translate(67 671)"/>
</clipPath>
</defs>
</svg>
