<svg width="294" height="70" viewBox="0 0 294 70" fill="none" xmlns="http://www.w3.org/2000/svg">
<rect width="294" height="70" rx="10" fill="white"/>
<path d="M68.8429 12.09V33H66.1129V23.52H55.4629V33H52.7329V12.09H55.4629V21.27H66.1129V12.09H68.8429ZM74.9143 13.89C74.3943 13.89 73.9543 13.71 73.5943 13.35C73.2343 12.99 73.0543 12.55 73.0543 12.03C73.0543 11.51 73.2343 11.07 73.5943 10.71C73.9543 10.35 74.3943 10.17 74.9143 10.17C75.4143 10.17 75.8343 10.35 76.1743 10.71C76.5343 11.07 76.7143 11.51 76.7143 12.03C76.7143 12.55 76.5343 12.99 76.1743 13.35C75.8343 13.71 75.4143 13.89 74.9143 13.89ZM76.2343 16.56V33H73.5043V16.56H76.2343ZM83.7071 29.22L80.3471 37.29H78.5171L80.7071 29.22H83.7071ZM97.5625 12.09V33H94.8325V12.09H97.5625ZM102.635 12.09H105.665L102.785 18.9H100.865L102.635 12.09ZM128.548 16.26C129.828 16.26 130.968 16.53 131.968 17.07C132.968 17.59 133.758 18.38 134.338 19.44C134.918 20.5 135.208 21.79 135.208 23.31V33H132.508V23.7C132.508 22.06 132.098 20.81 131.278 19.95C130.478 19.07 129.388 18.63 128.008 18.63C126.588 18.63 125.458 19.09 124.618 20.01C123.778 20.91 123.358 22.22 123.358 23.94V33H120.658V23.7C120.658 22.06 120.248 20.81 119.428 19.95C118.628 19.07 117.538 18.63 116.158 18.63C114.738 18.63 113.608 19.09 112.768 20.01C111.928 20.91 111.508 22.22 111.508 23.94V33H108.778V16.56H111.508V18.93C112.048 18.07 112.768 17.41 113.668 16.95C114.588 16.49 115.598 16.26 116.698 16.26C118.078 16.26 119.298 16.57 120.358 17.19C121.418 17.81 122.208 18.72 122.728 19.92C123.188 18.76 123.948 17.86 125.008 17.22C126.068 16.58 127.248 16.26 128.548 16.26ZM164.124 33H161.394L150.414 16.35V33H147.684V12.06H150.414L161.394 28.68V12.06H164.124V33ZM170.188 13.89C169.668 13.89 169.228 13.71 168.868 13.35C168.508 12.99 168.328 12.55 168.328 12.03C168.328 11.51 168.508 11.07 168.868 10.71C169.228 10.35 169.668 10.17 170.188 10.17C170.688 10.17 171.108 10.35 171.448 10.71C171.808 11.07 171.988 11.51 171.988 12.03C171.988 12.55 171.808 12.99 171.448 13.35C171.108 13.71 170.688 13.89 170.188 13.89ZM171.508 16.56V33H168.778V16.56H171.508ZM185.341 33L178.891 25.74V33H176.161V10.8H178.891V23.85L185.221 16.56H189.031L181.291 24.75L189.061 33H185.341ZM198.77 33.27C197.23 33.27 195.83 32.92 194.57 32.22C193.33 31.52 192.35 30.53 191.63 29.25C190.93 27.95 190.58 26.45 190.58 24.75C190.58 23.07 190.94 21.59 191.66 20.31C192.4 19.01 193.4 18.02 194.66 17.34C195.92 16.64 197.33 16.29 198.89 16.29C200.45 16.29 201.86 16.64 203.12 17.34C204.38 18.02 205.37 19 206.09 20.28C206.83 21.56 207.2 23.05 207.2 24.75C207.2 26.45 206.82 27.95 206.06 29.25C205.32 30.53 204.31 31.52 203.03 32.22C201.75 32.92 200.33 33.27 198.77 33.27ZM198.77 30.87C199.75 30.87 200.67 30.64 201.53 30.18C202.39 29.72 203.08 29.03 203.6 28.11C204.14 27.19 204.41 26.07 204.41 24.75C204.41 23.43 204.15 22.31 203.63 21.39C203.11 20.47 202.43 19.79 201.59 19.35C200.75 18.89 199.84 18.66 198.86 18.66C197.86 18.66 196.94 18.89 196.1 19.35C195.28 19.79 194.62 20.47 194.12 21.39C193.62 22.31 193.37 23.43 193.37 24.75C193.37 26.09 193.61 27.22 194.09 28.14C194.59 29.06 195.25 29.75 196.07 30.21C196.89 30.65 197.79 30.87 198.77 30.87ZM213.519 10.8V33H210.789V10.8H213.519ZM217.152 24.72C217.152 23.04 217.492 21.57 218.172 20.31C218.852 19.03 219.782 18.04 220.962 17.34C222.162 16.64 223.492 16.29 224.952 16.29C226.392 16.29 227.642 16.6 228.702 17.22C229.762 17.84 230.552 18.62 231.072 19.56V16.56H233.832V33H231.072V29.94C230.532 30.9 229.722 31.7 228.642 32.34C227.582 32.96 226.342 33.27 224.922 33.27C223.462 33.27 222.142 32.91 220.962 32.19C219.782 31.47 218.852 30.46 218.172 29.16C217.492 27.86 217.152 26.38 217.152 24.72ZM231.072 24.75C231.072 23.51 230.822 22.43 230.322 21.51C229.822 20.59 229.142 19.89 228.282 19.41C227.442 18.91 226.512 18.66 225.492 18.66C224.472 18.66 223.542 18.9 222.702 19.38C221.862 19.86 221.192 20.56 220.692 21.48C220.192 22.4 219.942 23.48 219.942 24.72C219.942 25.98 220.192 27.08 220.692 28.02C221.192 28.94 221.862 29.65 222.702 30.15C223.542 30.63 224.472 30.87 225.492 30.87C226.512 30.87 227.442 30.63 228.282 30.15C229.142 29.65 229.822 28.94 230.322 28.02C230.822 27.08 231.072 25.99 231.072 24.75ZM239.916 13.89C239.396 13.89 238.956 13.71 238.596 13.35C238.256 12.99 238.086 12.55 238.086 12.03C238.086 11.51 238.256 11.07 238.596 10.71C238.956 10.35 239.396 10.17 239.916 10.17C240.436 10.17 240.866 10.35 241.206 10.71C241.566 11.07 241.746 11.51 241.746 12.03C241.746 12.55 241.566 12.99 241.206 13.35C240.866 13.71 240.436 13.89 239.916 13.89ZM241.266 36.57C241.266 38.03 240.896 39.1 240.156 39.78C239.416 40.46 238.336 40.8 236.916 40.8H235.326V38.49H236.466C237.226 38.49 237.756 38.34 238.056 38.04C238.376 37.74 238.536 37.23 238.536 36.51V16.56H241.266V36.57ZM129.93 63H128.11L120.79 51.9V63H118.97V49.04H120.79L128.11 60.12V49.04H129.93V63ZM133.972 50.26C133.626 50.26 133.332 50.14 133.092 49.9C132.852 49.66 132.732 49.3667 132.732 49.02C132.732 48.6733 132.852 48.38 133.092 48.14C133.332 47.9 133.626 47.78 133.972 47.78C134.306 47.78 134.586 47.9 134.812 48.14C135.052 48.38 135.172 48.6733 135.172 49.02C135.172 49.3667 135.052 49.66 134.812 49.9C134.586 50.14 134.306 50.26 133.972 50.26ZM134.852 52.04V63H133.032V52.04H134.852ZM144.074 63L139.774 58.16V63H137.954V48.2H139.774V56.9L143.994 52.04H146.534L141.374 57.5L146.554 63H144.074ZM147.567 57.5C147.567 56.3667 147.794 55.38 148.247 54.54C148.7 53.6867 149.327 53.0267 150.127 52.56C150.94 52.0933 151.867 51.86 152.907 51.86C154.254 51.86 155.36 52.1867 156.227 52.84C157.107 53.4933 157.687 54.4 157.967 55.56H156.007C155.82 54.8933 155.454 54.3667 154.907 53.98C154.374 53.5933 153.707 53.4 152.907 53.4C151.867 53.4 151.027 53.76 150.387 54.48C149.747 55.1867 149.427 56.1933 149.427 57.5C149.427 58.82 149.747 59.84 150.387 60.56C151.027 61.28 151.867 61.64 152.907 61.64C153.707 61.64 154.374 61.4533 154.907 61.08C155.44 60.7067 155.807 60.1733 156.007 59.48H157.967C157.674 60.6 157.087 61.5 156.207 62.18C155.327 62.8467 154.227 63.18 152.907 63.18C151.867 63.18 150.94 62.9467 150.127 62.48C149.327 62.0133 148.7 61.3533 148.247 60.5C147.794 59.6467 147.567 58.6467 147.567 57.5ZM161.335 50.26C160.989 50.26 160.695 50.14 160.455 49.9C160.215 49.66 160.095 49.3667 160.095 49.02C160.095 48.6733 160.215 48.38 160.455 48.14C160.695 47.9 160.989 47.78 161.335 47.78C161.669 47.78 161.949 47.9 162.175 48.14C162.415 48.38 162.535 48.6733 162.535 49.02C162.535 49.3667 162.415 49.66 162.175 49.9C161.949 50.14 161.669 50.26 161.335 50.26ZM162.215 52.04V63H160.395V52.04H162.215ZM170.097 63.18C169.071 63.18 168.137 62.9467 167.297 62.48C166.471 62.0133 165.817 61.3533 165.337 60.5C164.871 59.6333 164.637 58.6333 164.637 57.5C164.637 56.38 164.877 55.3933 165.357 54.54C165.851 53.6733 166.517 53.0133 167.357 52.56C168.197 52.0933 169.137 51.86 170.177 51.86C171.217 51.86 172.157 52.0933 172.997 52.56C173.837 53.0133 174.497 53.6667 174.977 54.52C175.471 55.3733 175.717 56.3667 175.717 57.5C175.717 58.6333 175.464 59.6333 174.957 60.5C174.464 61.3533 173.791 62.0133 172.937 62.48C172.084 62.9467 171.137 63.18 170.097 63.18ZM170.097 61.58C170.751 61.58 171.364 61.4267 171.937 61.12C172.511 60.8133 172.971 60.3533 173.317 59.74C173.677 59.1267 173.857 58.38 173.857 57.5C173.857 56.62 173.684 55.8733 173.337 55.26C172.991 54.6467 172.537 54.1933 171.977 53.9C171.417 53.5933 170.811 53.44 170.157 53.44C169.491 53.44 168.877 53.5933 168.317 53.9C167.771 54.1933 167.331 54.6467 166.997 55.26C166.664 55.8733 166.497 56.62 166.497 57.5C166.497 58.3933 166.657 59.1467 166.977 59.76C167.311 60.3733 167.751 60.8333 168.297 61.14C168.844 61.4333 169.444 61.58 170.097 61.58Z" fill="black"/>
</svg>
