<svg width="190" height="54" viewBox="0 0 190 54" fill="none" xmlns="http://www.w3.org/2000/svg">
<path d="M16.8429 2.09V23H14.1129V13.52H3.46285V23H0.732852V2.09H3.46285V11.27H14.1129V2.09H16.8429ZM22.9143 3.89C22.3943 3.89 21.9543 3.71 21.5943 3.35C21.2343 2.99 21.0543 2.55 21.0543 2.03C21.0543 1.51 21.2343 1.07 21.5943 0.709999C21.9543 0.349999 22.3943 0.169999 22.9143 0.169999C23.4143 0.169999 23.8343 0.349999 24.1743 0.709999C24.5343 1.07 24.7143 1.51 24.7143 2.03C24.7143 2.55 24.5343 2.99 24.1743 3.35C23.8343 3.71 23.4143 3.89 22.9143 3.89ZM24.2343 6.56V23H21.5043V6.56H24.2343ZM31.7071 19.22L28.3471 27.29H26.5171L28.7071 19.22H31.7071ZM45.5625 2.09V23H42.8325V2.09H45.5625ZM50.6353 2.09H53.6653L50.7853 8.9H48.8653L50.6353 2.09ZM76.5478 6.26C77.8278 6.26 78.9678 6.53 79.9678 7.07C80.9678 7.59 81.7578 8.38 82.3378 9.44C82.9178 10.5 83.2078 11.79 83.2078 13.31V23H80.5078V13.7C80.5078 12.06 80.0978 10.81 79.2778 9.95C78.4778 9.07 77.3878 8.63 76.0078 8.63C74.5878 8.63 73.4578 9.09 72.6178 10.01C71.7778 10.91 71.3578 12.22 71.3578 13.94V23H68.6578V13.7C68.6578 12.06 68.2478 10.81 67.4278 9.95C66.6278 9.07 65.5378 8.63 64.1578 8.63C62.7378 8.63 61.6078 9.09 60.7678 10.01C59.9278 10.91 59.5078 12.22 59.5078 13.94V23H56.7778V6.56H59.5078V8.93C60.0478 8.07 60.7678 7.41 61.6678 6.95C62.5878 6.49 63.5978 6.26 64.6978 6.26C66.0778 6.26 67.2978 6.57 68.3578 7.19C69.4178 7.81 70.2078 8.72 70.7278 9.92C71.1878 8.76 71.9478 7.86 73.0078 7.22C74.0678 6.58 75.2478 6.26 76.5478 6.26ZM112.124 23H109.394L98.414 6.35V23H95.684V2.06H98.414L109.394 18.68V2.06H112.124V23ZM118.188 3.89C117.668 3.89 117.228 3.71 116.868 3.35C116.508 2.99 116.328 2.55 116.328 2.03C116.328 1.51 116.508 1.07 116.868 0.709999C117.228 0.349999 117.668 0.169999 118.188 0.169999C118.688 0.169999 119.108 0.349999 119.448 0.709999C119.808 1.07 119.988 1.51 119.988 2.03C119.988 2.55 119.808 2.99 119.448 3.35C119.108 3.71 118.688 3.89 118.188 3.89ZM119.508 6.56V23H116.778V6.56H119.508ZM133.341 23L126.891 15.74V23H124.161V0.8H126.891V13.85L133.221 6.56H137.031L129.291 14.75L137.061 23H133.341ZM146.77 23.27C145.23 23.27 143.83 22.92 142.57 22.22C141.33 21.52 140.35 20.53 139.63 19.25C138.93 17.95 138.58 16.45 138.58 14.75C138.58 13.07 138.94 11.59 139.66 10.31C140.4 9.01 141.4 8.02 142.66 7.34C143.92 6.64 145.33 6.29 146.89 6.29C148.45 6.29 149.86 6.64 151.12 7.34C152.38 8.02 153.37 9 154.09 10.28C154.83 11.56 155.2 13.05 155.2 14.75C155.2 16.45 154.82 17.95 154.06 19.25C153.32 20.53 152.31 21.52 151.03 22.22C149.75 22.92 148.33 23.27 146.77 23.27ZM146.77 20.87C147.75 20.87 148.67 20.64 149.53 20.18C150.39 19.72 151.08 19.03 151.6 18.11C152.14 17.19 152.41 16.07 152.41 14.75C152.41 13.43 152.15 12.31 151.63 11.39C151.11 10.47 150.43 9.79 149.59 9.35C148.75 8.89 147.84 8.66 146.86 8.66C145.86 8.66 144.94 8.89 144.1 9.35C143.28 9.79 142.62 10.47 142.12 11.39C141.62 12.31 141.37 13.43 141.37 14.75C141.37 16.09 141.61 17.22 142.09 18.14C142.59 19.06 143.25 19.75 144.07 20.21C144.89 20.65 145.79 20.87 146.77 20.87ZM161.519 0.8V23H158.789V0.8H161.519ZM165.152 14.72C165.152 13.04 165.492 11.57 166.172 10.31C166.852 9.03 167.782 8.04 168.962 7.34C170.162 6.64 171.492 6.29 172.952 6.29C174.392 6.29 175.642 6.6 176.702 7.22C177.762 7.84 178.552 8.62 179.072 9.56V6.56H181.832V23H179.072V19.94C178.532 20.9 177.722 21.7 176.642 22.34C175.582 22.96 174.342 23.27 172.922 23.27C171.462 23.27 170.142 22.91 168.962 22.19C167.782 21.47 166.852 20.46 166.172 19.16C165.492 17.86 165.152 16.38 165.152 14.72ZM179.072 14.75C179.072 13.51 178.822 12.43 178.322 11.51C177.822 10.59 177.142 9.89 176.282 9.41C175.442 8.91 174.512 8.66 173.492 8.66C172.472 8.66 171.542 8.9 170.702 9.38C169.862 9.86 169.192 10.56 168.692 11.48C168.192 12.4 167.942 13.48 167.942 14.72C167.942 15.98 168.192 17.08 168.692 18.02C169.192 18.94 169.862 19.65 170.702 20.15C171.542 20.63 172.472 20.87 173.492 20.87C174.512 20.87 175.442 20.63 176.282 20.15C177.142 19.65 177.822 18.94 178.322 18.02C178.822 17.08 179.072 15.99 179.072 14.75ZM187.916 3.89C187.396 3.89 186.956 3.71 186.596 3.35C186.256 2.99 186.086 2.55 186.086 2.03C186.086 1.51 186.256 1.07 186.596 0.709999C186.956 0.349999 187.396 0.169999 187.916 0.169999C188.436 0.169999 188.866 0.349999 189.206 0.709999C189.566 1.07 189.746 1.51 189.746 2.03C189.746 2.55 189.566 2.99 189.206 3.35C188.866 3.71 188.436 3.89 187.916 3.89ZM189.266 26.57C189.266 28.03 188.896 29.1 188.156 29.78C187.416 30.46 186.336 30.8 184.916 30.8H183.326V28.49H184.466C185.226 28.49 185.756 28.34 186.056 28.04C186.376 27.74 186.536 27.23 186.536 26.51V6.56H189.266V26.57ZM77.9297 53H76.1097L68.7897 41.9V53H66.9697V39.04H68.7897L76.1097 50.12V39.04H77.9297V53ZM81.9722 40.26C81.6255 40.26 81.3322 40.14 81.0922 39.9C80.8522 39.66 80.7322 39.3667 80.7322 39.02C80.7322 38.6733 80.8522 38.38 81.0922 38.14C81.3322 37.9 81.6255 37.78 81.9722 37.78C82.3055 37.78 82.5855 37.9 82.8122 38.14C83.0522 38.38 83.1722 38.6733 83.1722 39.02C83.1722 39.3667 83.0522 39.66 82.8122 39.9C82.5855 40.14 82.3055 40.26 81.9722 40.26ZM82.8522 42.04V53H81.0322V42.04H82.8522ZM92.0741 53L87.7741 48.16V53H85.9541V38.2H87.7741V46.9L91.9941 42.04H94.5341L89.3741 47.5L94.5541 53H92.0741ZM95.567 47.5C95.567 46.3667 95.7937 45.38 96.247 44.54C96.7004 43.6867 97.327 43.0267 98.127 42.56C98.9404 42.0933 99.867 41.86 100.907 41.86C102.254 41.86 103.36 42.1867 104.227 42.84C105.107 43.4933 105.687 44.4 105.967 45.56H104.007C103.82 44.8933 103.454 44.3667 102.907 43.98C102.374 43.5933 101.707 43.4 100.907 43.4C99.867 43.4 99.027 43.76 98.387 44.48C97.747 45.1867 97.427 46.1933 97.427 47.5C97.427 48.82 97.747 49.84 98.387 50.56C99.027 51.28 99.867 51.64 100.907 51.64C101.707 51.64 102.374 51.4533 102.907 51.08C103.44 50.7067 103.807 50.1733 104.007 49.48H105.967C105.674 50.6 105.087 51.5 104.207 52.18C103.327 52.8467 102.227 53.18 100.907 53.18C99.867 53.18 98.9404 52.9467 98.127 52.48C97.327 52.0133 96.7004 51.3533 96.247 50.5C95.7937 49.6467 95.567 48.6467 95.567 47.5ZM109.335 40.26C108.989 40.26 108.695 40.14 108.455 39.9C108.215 39.66 108.095 39.3667 108.095 39.02C108.095 38.6733 108.215 38.38 108.455 38.14C108.695 37.9 108.989 37.78 109.335 37.78C109.669 37.78 109.949 37.9 110.175 38.14C110.415 38.38 110.535 38.6733 110.535 39.02C110.535 39.3667 110.415 39.66 110.175 39.9C109.949 40.14 109.669 40.26 109.335 40.26ZM110.215 42.04V53H108.395V42.04H110.215ZM118.097 53.18C117.071 53.18 116.137 52.9467 115.297 52.48C114.471 52.0133 113.817 51.3533 113.337 50.5C112.871 49.6333 112.637 48.6333 112.637 47.5C112.637 46.38 112.877 45.3933 113.357 44.54C113.851 43.6733 114.517 43.0133 115.357 42.56C116.197 42.0933 117.137 41.86 118.177 41.86C119.217 41.86 120.157 42.0933 120.997 42.56C121.837 43.0133 122.497 43.6667 122.977 44.52C123.471 45.3733 123.717 46.3667 123.717 47.5C123.717 48.6333 123.464 49.6333 122.957 50.5C122.464 51.3533 121.791 52.0133 120.937 52.48C120.084 52.9467 119.137 53.18 118.097 53.18ZM118.097 51.58C118.751 51.58 119.364 51.4267 119.937 51.12C120.511 50.8133 120.971 50.3533 121.317 49.74C121.677 49.1267 121.857 48.38 121.857 47.5C121.857 46.62 121.684 45.8733 121.337 45.26C120.991 44.6467 120.537 44.1933 119.977 43.9C119.417 43.5933 118.811 43.44 118.157 43.44C117.491 43.44 116.877 43.5933 116.317 43.9C115.771 44.1933 115.331 44.6467 114.997 45.26C114.664 45.8733 114.497 46.62 114.497 47.5C114.497 48.3933 114.657 49.1467 114.977 49.76C115.311 50.3733 115.751 50.8333 116.297 51.14C116.844 51.4333 117.444 51.58 118.097 51.58Z" fill="black"/>
</svg>
