<svg width="32" height="32" viewBox="0 0 32 32" fill="none" xmlns="http://www.w3.org/2000/svg">
<path d="M16 28.4444C22.8729 28.4444 28.4444 22.8729 28.4444 16C28.4444 9.12712 22.8729 3.55556 16 3.55556C9.12712 3.55556 3.55556 9.12712 3.55556 16C3.55556 22.8729 9.12712 28.4444 16 28.4444Z" fill="#92D3F5"/>
<path d="M16 28.4444C22.8729 28.4444 28.4444 22.8729 28.4444 16C28.4444 9.12712 22.8729 3.55556 16 3.55556C9.12712 3.55556 3.55556 9.12712 3.55556 16C3.55556 22.8729 9.12712 28.4444 16 28.4444Z" stroke="black" stroke-width="0.5" stroke-miterlimit="10" stroke-linecap="round" stroke-linejoin="round"/>
<path d="M16 3.55556V28.4444C12.1956 28.4444 9.11111 22.8729 9.11111 16C9.11111 9.12711 12.1956 3.55556 16 3.55556ZM16 3.55556C19.8044 3.55556 22.8889 9.12711 22.8889 16C22.8889 22.8729 19.8044 28.4444 16 28.4444" stroke="black" stroke-width="0.5" stroke-miterlimit="10" stroke-linecap="round" stroke-linejoin="round"/>
<path d="M28.4444 16H3.55556" stroke="black" stroke-width="0.5" stroke-miterlimit="10" stroke-linecap="round" stroke-linejoin="round"/>
<path d="M26.6667 9.77778H5.33334" stroke="black" stroke-width="0.5" stroke-miterlimit="10" stroke-linecap="round" stroke-linejoin="round"/>
<path d="M26.6667 22.2222H5.33334" stroke="black" stroke-width="0.5" stroke-miterlimit="10" stroke-linecap="round" stroke-linejoin="round"/>
</svg>
