<svg width="32" height="32" viewBox="0 0 32 32" fill="none" xmlns="http://www.w3.org/2000/svg">
<path d="M25.7778 4.88889H6.22222C5.48584 4.88889 4.88889 5.48584 4.88889 6.22222V25.7778C4.88889 26.5142 5.48584 27.1111 6.22222 27.1111H25.7778C26.5142 27.1111 27.1111 26.5142 27.1111 25.7778V6.22222C27.1111 5.48584 26.5142 4.88889 25.7778 4.88889Z" fill="#61B2E4"/>
<path d="M8.88889 13.3333H11.5556V22.6667H8.88889V13.3333Z" fill="white"/>
<path d="M10.2222 11.3333C11.0813 11.3333 11.7778 10.6369 11.7778 9.77778C11.7778 8.91867 11.0813 8.22222 10.2222 8.22222C9.36311 8.22222 8.66667 8.91867 8.66667 9.77778C8.66667 10.6369 9.36311 11.3333 10.2222 11.3333Z" fill="white"/>
<path d="M18.8889 15.5556C17.9071 15.5556 17.1111 16.0747 17.1111 17.5556V22.6667H14.4444V13.3333H17.1111V14.3156H17.1102C17.4436 13.9366 17.854 13.6331 18.314 13.4254C18.774 13.2177 19.273 13.1105 19.7778 13.1111C21.7413 13.1111 23.3333 14.5778 23.3333 17.1111V22.6667H20.6667V17.5556C20.6667 16.0747 19.8711 15.5556 18.8889 15.5556Z" fill="white"/>
<path d="M25.7778 4.88889H6.22222C5.48584 4.88889 4.88889 5.48584 4.88889 6.22222V25.7778C4.88889 26.5142 5.48584 27.1111 6.22222 27.1111H25.7778C26.5142 27.1111 27.1111 26.5142 27.1111 25.7778V6.22222C27.1111 5.48584 26.5142 4.88889 25.7778 4.88889Z" stroke="black" stroke-width="0.5" stroke-miterlimit="10"/>
<path d="M8.88889 13.3333H11.5556V22.6667H8.88889V13.3333Z" stroke="black" stroke-width="0.5" stroke-linecap="round" stroke-linejoin="round"/>
<path d="M10.2222 11.3333C11.0813 11.3333 11.7778 10.6369 11.7778 9.77778C11.7778 8.91867 11.0813 8.22222 10.2222 8.22222C9.36311 8.22222 8.66667 8.91867 8.66667 9.77778C8.66667 10.6369 9.36311 11.3333 10.2222 11.3333Z" stroke="black" stroke-width="0.5" stroke-linecap="round" stroke-linejoin="round"/>
<path d="M18.8889 15.5556C17.9071 15.5556 17.1111 16.0747 17.1111 17.5556V22.6667H14.4444V13.3333H17.1111V14.3156H17.1102C17.4436 13.9366 17.854 13.6331 18.314 13.4254C18.774 13.2177 19.273 13.1105 19.7778 13.1111C21.7413 13.1111 23.3333 14.5778 23.3333 17.1111V22.6667H20.6667V17.5556C20.6667 16.0747 19.8711 15.5556 18.8889 15.5556Z" stroke="black" stroke-width="0.5" stroke-linecap="round" stroke-linejoin="round"/>
</svg>
