<?xml version="1.0" standalone="no"?>
<!DOCTYPE svg PUBLIC "-//W3C//DTD SVG 20010904//EN"
 "http://www.w3.org/TR/2001/REC-SVG-20010904/DTD/svg10.dtd">
<svg version="1.0" xmlns="http://www.w3.org/2000/svg"
 width="647.000000pt" height="761.000000pt" viewBox="0 0 647.000000 761.000000"
 preserveAspectRatio="xMidYMid meet">
<metadata>
Created by potrace 1.16, written by Peter Selinger 2001-2019
</metadata>
<g transform="translate(0.000000,761.000000) scale(0.100000,-0.100000)"
fill="#3544b1" stroke="none">
<path d="M3115 7529 c-903 -43 -1752 -534 -2257 -1304 -227 -346 -374 -736
-443 -1175 -26 -163 -31 -540 -11 -720 77 -671 362 -1266 831 -1735 666 -666
1607 -964 2546 -805 647 110 1259 456 1688 955 387 449 616 970 687 1560 22
174 21 499 0 673 -82 674 -371 1262 -853 1732 -197 193 -356 313 -590 447
-482 277 -1011 400 -1598 372z m-1135 -1749 c160 -25 187 -32 203 -51 12 -15
16 -31 12 -46 -12 -47 -45 -262 -64 -413 -59 -460 -51 -901 19 -1159 32 -116
68 -179 145 -257 106 -107 176 -135 436 -175 190 -30 753 -38 976 -15 325 35
452 76 560 185 97 97 144 206 180 417 15 90 18 163 18 429 -1 340 -9 441 -61
770 -37 228 -39 258 -21 273 25 21 403 77 431 64 29 -13 36 -39 81 -304 64
-383 90 -749 74 -1076 -36 -741 -257 -1060 -829 -1197 -213 -51 -373 -66 -750
-72 -627 -10 -980 38 -1255 173 -316 155 -471 418 -527 899 -16 141 -16 636 1
815 28 300 99 720 128 753 21 22 24 22 243 -13z"/>
<path d="M2470 630 l0 -521 56 3 c55 3 60 6 81 46 1 2 32 -11 70 -30 66 -32
72 -33 188 -33 114 0 123 1 173 29 101 56 150 162 159 346 13 254 -62 419
-210 462 -74 21 -194 15 -264 -14 l-62 -25 -3 126 -3 126 -92 3 -93 3 0 -521z
m450 127 c48 -32 69 -73 81 -164 12 -93 -1 -219 -29 -267 -10 -17 -38 -41 -62
-54 -37 -19 -56 -23 -105 -19 -33 3 -79 12 -102 22 l-43 17 0 223 0 222 38 16
c57 24 63 25 128 26 48 1 68 -4 94 -22z"/>
<path d="M1388 940 c-37 -6 -123 -41 -168 -67 -3 -2 -13 11 -22 28 -17 28 -21
30 -70 27 l-53 -3 0 -405 0 -405 90 0 90 0 3 311 2 310 38 19 c20 10 69 20
108 23 64 4 73 2 100 -21 l29 -25 3 -311 3 -312 92 3 92 3 5 314 5 313 45 19
c26 10 71 18 108 18 54 1 66 -3 87 -24 l25 -24 0 -298 c0 -164 4 -304 8 -311
6 -9 33 -12 98 -10 l89 3 0 320 c0 350 -3 369 -58 431 -39 45 -75 63 -150 75
-80 13 -183 -3 -264 -41 -56 -26 -63 -27 -75 -13 -36 44 -166 70 -260 53z"/>
<path d="M4235 939 c-85 -14 -135 -31 -145 -50 -14 -26 -12 -112 3 -133 12
-17 16 -17 68 -1 74 22 216 31 261 16 48 -16 67 -39 74 -93 l6 -45 -110 -7
c-201 -13 -289 -48 -339 -134 -25 -42 -28 -56 -28 -142 0 -86 3 -99 28 -143
52 -87 131 -121 271 -115 78 3 100 8 155 36 35 18 65 31 66 30 1 -2 8 -13 14
-26 11 -20 18 -23 69 -20 l57 3 3 294 c3 322 -4 381 -53 445 -59 77 -229 114
-400 85z m263 -541 l-3 -103 -40 -20 c-43 -20 -137 -32 -180 -21 -74 19 -87
158 -20 202 21 14 129 34 233 43 10 1 12 -23 10 -101z"/>
<path d="M5205 939 c-128 -13 -206 -63 -255 -162 -41 -85 -53 -160 -47 -302 8
-217 77 -325 235 -371 66 -19 265 -15 327 7 l40 14 0 75 0 75 -40 -3 c-22 -1
-89 -3 -150 -5 -100 -2 -113 0 -142 21 -17 12 -42 43 -55 70 -20 41 -23 62
-23 157 0 95 3 116 23 157 35 70 71 92 162 97 41 2 105 -2 143 -10 83 -15 87
-12 87 79 0 62 0 63 -34 77 -19 8 -61 17 -93 20 -32 3 -69 7 -83 9 -14 1 -56
-1 -95 -5z"/>
<path d="M5948 940 c-171 -22 -262 -132 -276 -335 -15 -206 15 -348 89 -425
68 -70 112 -84 269 -85 128 0 138 1 192 28 103 51 151 136 168 300 19 187 -17
357 -94 433 -70 70 -207 103 -348 84z m171 -178 c63 -31 76 -75 76 -247 0
-169 -9 -198 -76 -243 -29 -20 -44 -23 -96 -20 -71 4 -106 25 -138 79 -18 30
-20 52 -20 184 0 138 2 154 23 193 15 27 35 49 55 57 45 20 135 19 176 -3z"/>
<path d="M3646 915 c-32 -13 -64 -29 -69 -34 -17 -17 -25 -13 -42 19 -13 26
-21 30 -54 30 -77 0 -71 34 -71 -416 l0 -405 93 3 92 3 3 312 2 311 53 18 c28
10 95 21 147 24 l95 5 3 57 c5 91 -3 98 -106 98 -69 0 -99 -6 -146 -25z"/>
<path d="M110 911 c-13 -25 -13 -521 0 -616 19 -135 92 -196 241 -203 100 -5
171 8 243 44 l50 25 19 -25 c16 -22 26 -26 72 -26 39 0 54 4 59 16 11 28 7
764 -4 785 -9 16 -22 19 -88 19 -47 0 -83 -5 -90 -12 -9 -9 -12 -94 -12 -319
l0 -307 -41 -16 c-58 -23 -149 -31 -193 -16 -64 21 -66 32 -66 358 0 211 -3
291 -12 300 -7 7 -43 12 -90 12 -66 0 -79 -3 -88 -19z"/>
</g>
</svg>
