<svg width="199" height="56" viewBox="0 0 199 56" fill="none" xmlns="http://www.w3.org/2000/svg">
<rect width="199" height="56" rx="20" fill="#F1DFD5"/>
<path d="M175.335 42.3333H157.002C156.117 42.3333 155.27 41.9821 154.645 41.357C154.019 40.7319 153.668 39.884 153.668 39V20.6667C153.668 19.7826 154.019 18.9348 154.645 18.3096C155.27 17.6845 156.117 17.3333 157.002 17.3333H163.668V20.6667H157.002V39H175.335V32.3333H178.668V39C178.668 39.884 178.317 40.7319 177.692 41.357C177.067 41.9821 176.219 42.3333 175.335 42.3333ZM166.502 31.845L164.152 29.4883L174.64 19H168.668V15.6667H180.335V27.3333H177.002V21.3583L166.502 31.845V31.845Z" fill="black"/>
<path d="M28.18 37H24.418L18.126 27.474V37H14.364V21.556H18.126L24.418 31.126V21.556H28.18V37ZM32.799 23.448C32.139 23.448 31.5963 23.2573 31.171 22.876C30.7603 22.48 30.555 21.996 30.555 21.424C30.555 20.8373 30.7603 20.3533 31.171 19.972C31.5963 19.576 32.139 19.378 32.799 19.378C33.4443 19.378 33.9723 19.576 34.383 19.972C34.8083 20.3533 35.021 20.8373 35.021 21.424C35.021 21.996 34.8083 22.48 34.383 22.876C33.9723 23.2573 33.4443 23.448 32.799 23.448ZM34.669 24.724V37H30.907V24.724H34.669ZM44.8973 37L41.1573 31.852V37H37.3953V20.72H41.1573V29.718L44.8753 24.724H49.5173L44.4133 30.884L49.5613 37H44.8973ZM50.2469 30.862C50.2469 29.586 50.5035 28.4713 51.0169 27.518C51.5449 26.5647 52.2709 25.8313 53.1949 25.318C54.1335 24.8047 55.2042 24.548 56.4069 24.548C57.9469 24.548 59.2302 24.9513 60.2569 25.758C61.2982 26.5647 61.9802 27.7013 62.3029 29.168H58.2989C57.9615 28.2293 57.3089 27.76 56.3409 27.76C55.6515 27.76 55.1015 28.0313 54.6909 28.574C54.2802 29.102 54.0749 29.8647 54.0749 30.862C54.0749 31.8593 54.2802 32.6293 54.6909 33.172C55.1015 33.7 55.6515 33.964 56.3409 33.964C57.3089 33.964 57.9615 33.4947 58.2989 32.556H62.3029C61.9802 33.9933 61.2982 35.1227 60.2569 35.944C59.2155 36.7653 57.9322 37.176 56.4069 37.176C55.2042 37.176 54.1335 36.9193 53.1949 36.406C52.2709 35.8927 51.5449 35.1593 51.0169 34.206C50.5035 33.2527 50.2469 32.138 50.2469 30.862ZM66.2072 23.448C65.5472 23.448 65.0045 23.2573 64.5792 22.876C64.1685 22.48 63.9632 21.996 63.9632 21.424C63.9632 20.8373 64.1685 20.3533 64.5792 19.972C65.0045 19.576 65.5472 19.378 66.2072 19.378C66.8525 19.378 67.3805 19.576 67.7912 19.972C68.2165 20.3533 68.4292 20.8373 68.4292 21.424C68.4292 21.996 68.2165 22.48 67.7912 22.876C67.3805 23.2573 66.8525 23.448 66.2072 23.448ZM68.0772 24.724V37H64.3152V24.724H68.0772ZM76.3915 37.176C75.1888 37.176 74.1035 36.9193 73.1355 36.406C72.1821 35.8927 71.4268 35.1593 70.8695 34.206C70.3268 33.2527 70.0555 32.138 70.0555 30.862C70.0555 29.6007 70.3341 28.4933 70.8915 27.54C71.4488 26.572 72.2115 25.8313 73.1795 25.318C74.1475 24.8047 75.2328 24.548 76.4355 24.548C77.6381 24.548 78.7235 24.8047 79.6915 25.318C80.6595 25.8313 81.4221 26.572 81.9795 27.54C82.5368 28.4933 82.8155 29.6007 82.8155 30.862C82.8155 32.1233 82.5295 33.238 81.9575 34.206C81.4001 35.1593 80.6301 35.8927 79.6475 36.406C78.6795 36.9193 77.5941 37.176 76.3915 37.176ZM76.3915 33.92C77.1101 33.92 77.7188 33.656 78.2175 33.128C78.7308 32.6 78.9875 31.8447 78.9875 30.862C78.9875 29.8793 78.7381 29.124 78.2395 28.596C77.7555 28.068 77.1541 27.804 76.4355 27.804C75.7021 27.804 75.0935 28.068 74.6095 28.596C74.1255 29.1093 73.8835 29.8647 73.8835 30.862C73.8835 31.8447 74.1181 32.6 74.5875 33.128C75.0715 33.656 75.6728 33.92 76.3915 33.92ZM86.5713 37.176C85.9113 37.176 85.3686 36.9853 84.9433 36.604C84.5326 36.208 84.3273 35.724 84.3273 35.152C84.3273 34.5653 84.5326 34.074 84.9433 33.678C85.3686 33.282 85.9113 33.084 86.5713 33.084C87.2166 33.084 87.7446 33.282 88.1553 33.678C88.5806 34.074 88.7933 34.5653 88.7933 35.152C88.7933 35.724 88.5806 36.208 88.1553 36.604C87.7446 36.9853 87.2166 37.176 86.5713 37.176ZM90.2723 30.862C90.2723 29.586 90.5289 28.4713 91.0423 27.518C91.5703 26.5647 92.2963 25.8313 93.2203 25.318C94.1589 24.8047 95.2296 24.548 96.4323 24.548C97.9723 24.548 99.2556 24.9513 100.282 25.758C101.324 26.5647 102.006 27.7013 102.328 29.168H98.3243C97.9869 28.2293 97.3343 27.76 96.3663 27.76C95.6769 27.76 95.1269 28.0313 94.7163 28.574C94.3056 29.102 94.1003 29.8647 94.1003 30.862C94.1003 31.8593 94.3056 32.6293 94.7163 33.172C95.1269 33.7 95.6769 33.964 96.3663 33.964C97.3343 33.964 97.9869 33.4947 98.3243 32.556H102.328C102.006 33.9933 101.324 35.1227 100.282 35.944C99.2409 36.7653 97.9576 37.176 96.4323 37.176C95.2296 37.176 94.1589 36.9193 93.2203 36.406C92.2963 35.8927 91.5703 35.1593 91.0423 34.206C90.5289 33.2527 90.2723 32.138 90.2723 30.862ZM109.929 37.176C108.726 37.176 107.641 36.9193 106.673 36.406C105.719 35.8927 104.964 35.1593 104.407 34.206C103.864 33.2527 103.593 32.138 103.593 30.862C103.593 29.6007 103.871 28.4933 104.429 27.54C104.986 26.572 105.749 25.8313 106.717 25.318C107.685 24.8047 108.77 24.548 109.973 24.548C111.175 24.548 112.261 24.8047 113.229 25.318C114.197 25.8313 114.959 26.572 115.517 27.54C116.074 28.4933 116.353 29.6007 116.353 30.862C116.353 32.1233 116.067 33.238 115.495 34.206C114.937 35.1593 114.167 35.8927 113.185 36.406C112.217 36.9193 111.131 37.176 109.929 37.176ZM109.929 33.92C110.647 33.92 111.256 33.656 111.755 33.128C112.268 32.6 112.525 31.8447 112.525 30.862C112.525 29.8793 112.275 29.124 111.777 28.596C111.293 28.068 110.691 27.804 109.973 27.804C109.239 27.804 108.631 28.068 108.147 28.596C107.663 29.1093 107.421 29.8647 107.421 30.862C107.421 31.8447 107.655 32.6 108.125 33.128C108.609 33.656 109.21 33.92 109.929 33.92ZM134.012 24.592C135.538 24.592 136.748 25.054 137.642 25.978C138.552 26.902 139.006 28.1853 139.006 29.828V37H135.266V30.334C135.266 29.542 135.054 28.9333 134.628 28.508C134.218 28.068 133.646 27.848 132.912 27.848C132.179 27.848 131.6 28.068 131.174 28.508C130.764 28.9333 130.558 29.542 130.558 30.334V37H126.818V30.334C126.818 29.542 126.606 28.9333 126.18 28.508C125.77 28.068 125.198 27.848 124.464 27.848C123.731 27.848 123.152 28.068 122.726 28.508C122.316 28.9333 122.11 29.542 122.11 30.334V37H118.348V24.724H122.11V26.264C122.492 25.7507 122.99 25.3473 123.606 25.054C124.222 24.746 124.919 24.592 125.696 24.592C126.62 24.592 127.442 24.79 128.16 25.186C128.894 25.582 129.466 26.1467 129.876 26.88C130.302 26.2053 130.881 25.6553 131.614 25.23C132.348 24.8047 133.147 24.592 134.012 24.592Z" fill="#EF6F6C"/>
</svg>
